<svg width="20" height="21" viewBox="0 0 20 21" fill="none" xmlns="http://www.w3.org/2000/svg">
<path d="M10 0.536621C4.49 0.536621 0 5.02662 0 10.5366C0 16.0466 4.49 20.5366 10 20.5366C15.51 20.5366 20 16.0466 20 10.5366C20 5.02662 15.51 0.536621 10 0.536621ZM14.78 8.23662L9.11 13.9066C8.97 14.0466 8.78 14.1266 8.58 14.1266C8.38 14.1266 8.19 14.0466 8.05 13.9066L5.22 11.0766C4.93 10.7866 4.93 10.3066 5.22 10.0166C5.51 9.72662 5.99 9.72662 6.28 10.0166L8.58 12.3166L13.72 7.17662C14.01 6.88662 14.49 6.88662 14.78 7.17662C15.07 7.46662 15.07 7.93662 14.78 8.23662Z" fill="#4EDF9A"/>
</svg>
