<svg width="587" height="575" viewBox="0 0 587 575" fill="none" xmlns="http://www.w3.org/2000/svg">
<path opacity="0.1" d="M171.056 514.821C110.682 494.473 58.2922 443.958 47.7105 381.26C37.1287 318.563 76.6318 247.862 138.889 234.253C168.329 227.773 200.107 233.572 228.217 222.75C281.288 202.402 299.303 133.515 348.316 104.775C395.544 77.1035 460.268 97.0631 495.454 138.959C530.64 180.855 540.897 238.66 538.723 293.289C535.477 373.516 501.394 460.062 428.361 494.181C366.915 522.76 237.013 530.86 171.088 514.983" fill="url(#paint0_linear_2_1500)"/>
<path d="M324.883 263.497C393.681 263.497 449.452 207.725 449.452 138.927C449.452 70.1293 393.681 14.3576 324.883 14.3576C256.085 14.3576 200.313 70.1293 200.313 138.927C200.313 207.725 256.085 263.497 324.883 263.497Z" fill="#DDD2F3"/>
<path d="M336.843 18.7732C340.614 17.5315 344.636 17.26 348.54 17.9836C350.492 18.3551 352.345 19.1294 353.982 20.2572C355.618 21.385 357.001 22.8415 358.043 24.5337C359.89 28.699 360.499 33.3075 359.798 37.8095C359.096 49.1552 358.404 60.4913 357.721 71.8175C357.295 74.951 357.585 78.1404 358.569 81.1456C359.107 82.6286 360.123 83.8905 361.458 84.7323C362.792 85.5741 364.368 85.948 365.938 85.795C367.459 85.2816 368.928 84.6257 370.325 83.8359C371.035 83.4585 371.848 83.3202 372.644 83.4413C373.439 83.5625 374.174 83.9367 374.74 84.5084C375.27 85.3855 375.437 86.4341 375.208 87.4326C374.964 89.5298 374.227 91.5396 373.058 93.2979C371.89 95.0562 370.322 96.5133 368.482 97.5502C369.045 97.3716 369.643 97.3277 370.226 97.4221C370.809 97.5165 371.361 97.7465 371.839 98.0936C372.317 98.4406 372.707 98.8951 372.977 99.4204C373.248 99.9456 373.391 100.527 373.395 101.118C373.304 102.318 372.866 103.466 372.134 104.421C371.402 105.377 370.407 106.098 369.272 106.498C366.968 107.224 364.546 107.502 362.137 107.317C362.626 107.368 363.1 107.515 363.531 107.751C363.963 107.986 364.343 108.305 364.65 108.688C364.958 109.072 365.186 109.512 365.322 109.985C365.457 110.457 365.498 110.952 365.441 111.44C365.282 112.419 364.869 113.34 364.243 114.109C363.617 114.879 362.8 115.471 361.874 115.826C360.002 116.498 357.996 116.709 356.025 116.44C351.786 116.157 347.721 114.642 344.329 112.083C338.48 107.522 336.229 99.7141 336.141 92.3744C336.514 85.0142 337.442 77.6926 338.919 70.4724C341.288 53.5707 339.358 36.3766 337.398 19.3872L338.831 18.9778" fill="#E3707F"/>
<path d="M359.417 271.655C354.826 276.071 353.072 282.942 357.458 288.235C359.555 290.683 362.494 292.255 365.695 292.639C368.895 293.023 372.123 292.193 374.74 290.311C387.168 280.691 374.214 263 360.762 266.655C360.249 266.804 359.806 267.133 359.515 267.582C359.224 268.031 359.105 268.57 359.18 269.1C359.255 269.629 359.518 270.114 359.921 270.466C360.325 270.817 360.841 271.011 361.376 271.012C365.374 270.756 369.342 271.859 372.635 274.141C374.2 275.573 375.146 277.559 375.272 279.677C375.397 281.795 374.692 283.879 373.307 285.486C365.997 294.493 353.277 281.246 360.967 273.205C361.12 272.991 361.191 272.73 361.17 272.468C361.148 272.206 361.034 271.96 360.848 271.774C360.662 271.588 360.416 271.474 360.154 271.453C359.892 271.431 359.631 271.502 359.417 271.655Z" fill="#8AA9FC"/>
<path d="M217.273 222.704C215.341 221.121 213.792 219.122 212.741 216.856C211.016 211.944 214.32 209.516 218.209 207.674C220.176 207.017 221.96 205.903 223.413 204.424C224.867 202.945 225.949 201.143 226.572 199.165C228.415 192.147 222.449 183.491 214.876 185.568C212.419 186.24 213.15 189.398 214.876 190.363C217.215 191.738 220.402 192.527 220.724 195.773C221.25 200.101 216.981 201.358 213.969 202.937C212.368 203.708 210.943 204.802 209.786 206.151C208.628 207.5 207.763 209.074 207.244 210.774C205.489 216.915 209.144 225.219 216.309 224.868C216.56 224.841 216.799 224.748 217.003 224.598C217.206 224.449 217.366 224.248 217.467 224.016C217.568 223.785 217.606 223.531 217.577 223.28C217.548 223.029 217.454 222.79 217.303 222.588L217.273 222.704Z" fill="#6E3281"/>
<path d="M193.763 297.856C194.377 301.92 198.588 310.517 203.033 311.716C205.401 312.33 207.156 310.78 208.881 309.523C212.215 307.213 215.519 304.844 218.823 302.505C219.459 302.111 219.919 301.488 220.11 300.764C220.3 300.041 220.206 299.272 219.847 298.616L211.074 285.135C210.68 284.5 210.057 284.039 209.334 283.849C208.61 283.659 207.841 283.753 207.185 284.112C203.395 286.542 199.762 289.208 196.307 292.095C194.056 294.171 196.921 297.592 199.495 296.218C203.169 294.057 206.696 291.654 210.051 289.025L206.191 288.001L214.964 301.482C215.285 300.195 215.636 298.908 215.958 297.592C213.999 299.025 212.01 300.517 210.109 301.832C208.998 302.651 205.226 306.16 203.998 306.014C202.77 305.868 200.547 301.92 199.846 301.101C198.553 299.404 197.027 297.898 195.313 296.627C194.436 296.013 193.588 297.008 193.734 297.856H193.763Z" fill="#EDC483"/>
<path d="M395.531 113.107C396.145 117.171 400.385 125.768 404.83 126.967C407.198 127.581 408.953 126.032 410.678 124.774C414.011 122.464 417.316 120.125 420.62 117.756C421.256 117.362 421.716 116.739 421.907 116.015C422.097 115.292 422.003 114.523 421.644 113.867L412.871 100.387C412.477 99.7509 411.854 99.2906 411.13 99.1002C410.407 98.9098 409.638 99.0039 408.982 99.3632C405.189 101.788 401.555 104.455 398.104 107.346C395.823 109.422 398.718 112.844 401.291 111.469C405.001 109.261 408.565 106.819 411.965 104.159L408.075 103.135L416.848 116.616C417.199 115.329 417.52 114.042 417.871 112.756L412.023 116.967C410.912 117.785 407.169 121.294 405.912 121.148C404.654 121.002 402.461 117.054 401.788 116.236C400.496 114.538 398.97 113.032 397.256 111.762C396.379 111.148 395.531 112.142 395.648 112.99L395.531 113.107Z" fill="#EDC483"/>
<path d="M412.871 186.386C405.297 189.925 397.812 193.667 390.355 197.498C389.954 197.659 389.602 197.921 389.332 198.257C389.061 198.594 388.882 198.995 388.812 199.421C388.741 199.847 388.782 200.284 388.929 200.69C389.076 201.096 389.326 201.457 389.653 201.738C395.121 207.382 400.531 213.055 406.409 218.289C406.683 218.507 407.004 218.66 407.346 218.736C407.688 218.812 408.043 218.809 408.384 218.727C408.725 218.645 409.043 218.487 409.314 218.264C409.585 218.041 409.801 217.76 409.947 217.441C413.602 209.487 419.129 198.639 417.608 189.603C417.228 187.293 413.719 186.269 412.783 188.813C411.717 192.979 410.917 197.208 410.385 201.475C409.372 206.333 407.812 211.062 405.736 215.57L409.596 215.277C404.245 209.224 398.455 203.58 392.665 197.995C392.665 199.311 392.665 200.627 392.665 201.943C399.975 197.82 407.286 193.668 414.362 189.281C414.648 189.044 414.843 188.716 414.915 188.351C414.986 187.987 414.929 187.609 414.753 187.282C414.578 186.955 414.294 186.699 413.951 186.557C413.608 186.415 413.226 186.396 412.871 186.503V186.386Z" fill="#E3707F"/>
<path d="M272.16 291.305C277.882 285.11 283.04 278.417 287.571 271.304C288.916 269.082 285.553 266.538 283.857 268.555C278.512 275.085 273.765 282.082 269.675 289.463C269.521 289.793 269.486 290.166 269.576 290.518C269.665 290.871 269.874 291.182 270.166 291.398C270.458 291.615 270.816 291.724 271.18 291.707C271.543 291.69 271.89 291.548 272.16 291.305Z" fill="#E3707F"/>
<path d="M456.704 73.0164L456.266 72.6363C455.839 72.1447 455.315 71.7464 454.728 71.4663C454.14 71.1861 453.501 71.0301 452.85 71.0079C452.2 70.9857 451.551 71.0979 450.946 71.3374C450.341 71.5769 449.791 71.9386 449.332 72.4C448.872 72.8613 448.513 73.4124 448.276 74.0188C448.039 74.6252 447.93 75.2738 447.955 75.9244C447.98 76.5749 448.139 77.2133 448.422 77.7997C448.704 78.3861 449.105 78.9079 449.598 79.3326L449.949 79.742C450.392 80.1867 450.919 80.5396 451.498 80.7804C452.078 81.0212 452.699 81.1451 453.327 81.1451C453.954 81.1451 454.576 81.0212 455.155 80.7804C455.735 80.5396 456.261 80.1867 456.704 79.742C457.579 78.8414 458.069 77.6351 458.069 76.3792C458.069 75.1234 457.579 73.917 456.704 73.0164Z" fill="#251A51"/>
<path d="M240.199 250.689L239.79 250.309C239.355 249.847 238.832 249.477 238.252 249.222C237.672 248.966 237.046 248.829 236.412 248.82C235.778 248.81 235.149 248.928 234.561 249.167C233.974 249.405 233.44 249.759 232.992 250.207C232.543 250.655 232.19 251.189 231.951 251.777C231.713 252.364 231.595 252.993 231.605 253.627C231.614 254.261 231.751 254.887 232.007 255.467C232.262 256.047 232.632 256.57 233.093 257.005L233.474 257.414C234.384 258.21 235.562 258.63 236.77 258.59C237.979 258.549 239.126 258.051 239.981 257.196C240.836 256.342 241.334 255.194 241.375 253.986C241.415 252.777 240.995 251.599 240.199 250.689Z" fill="#251A51"/>
<path d="M303.274 100.094L220.666 131.09L228.532 97.7256L207.039 92.2574C207.039 92.2574 183.938 157.496 199.992 159.221C228.093 162.145 270.611 151.15 270.611 151.15L303.274 100.094Z" fill="#F6AEA6"/>
<path d="M274.587 174.924L274.792 240.279C296.314 266.596 371.289 232.53 371.289 232.53L372.137 205.803L373.892 142.114C372.167 116.762 348.627 104.334 348.627 104.334C336.682 99.0499 323.656 96.6652 310.613 97.3747C296.635 98.0765 293.068 104.773 287.424 117.493C282.804 127.786 274.587 137.465 274.587 174.924Z" fill="#251A51"/>
<path d="M345.265 35.821L344.27 48.892C344.27 48.892 355.382 50.3834 352.224 60.5887C349.066 70.7941 341.434 66.437 341.434 66.437C341.434 66.437 339.533 92.4037 312.923 84.1575C291.752 77.6074 293.068 50.1787 295.759 26.8146C296.004 24.6719 296.692 22.6033 297.777 20.7394C298.861 18.8754 300.321 17.2564 302.063 15.9844C303.804 14.7124 305.791 13.815 307.897 13.3489C310.002 12.8827 312.182 12.8578 314.298 13.2757L330.293 16.4046C334.722 17.2693 338.684 19.717 341.439 23.2904C344.194 26.8637 345.554 31.3181 345.265 35.821Z" fill="#F6AEA6"/>
<path d="M344.241 59.7407L337.077 97.9595C336.694 99.9994 335.901 101.94 334.745 103.663C333.588 105.387 332.093 106.857 330.351 107.984C328.608 109.111 326.654 109.872 324.608 110.219C322.562 110.567 320.467 110.495 318.45 110.007C314.621 109.142 311.271 106.839 309.094 103.573C306.917 100.307 306.079 96.3289 306.753 92.4621L310.642 70.5309L344.241 59.7407Z" fill="#F6AEA6"/>
<path d="M314.795 60.2963C314.795 60.2963 314.97 60.8519 314.152 61.2905C313.333 61.7291 311.958 60.8519 311.607 59.536C311.218 58.1186 311.099 56.6405 311.257 55.179C311.257 53.5122 311.432 51.8455 311.52 50.091C311.544 45.6493 312.073 41.2247 313.099 36.903C313.626 41.2636 313.626 45.6718 313.099 50.0325C313.099 51.787 312.865 53.4537 312.719 55.1205C312.529 56.4295 312.529 57.7591 312.719 59.0681C312.894 60.1208 313.625 60.6179 314.093 60.5595C314.561 60.501 314.707 60.0916 314.795 60.2963Z" fill="#251A51"/>
<path d="M306.168 81.2918C310.095 83.306 314.375 84.5375 318.771 84.9178C323.185 84.7417 327.519 83.688 331.521 81.8182C331.521 81.8182 330.527 83.1048 328.275 84.2452C325.325 85.751 322.049 86.5043 318.738 86.4379C315.427 86.3716 312.184 85.4878 309.297 83.8651C307.25 82.6077 306.051 81.438 306.168 81.2918Z" fill="#251A51"/>
<path d="M311.373 65.5306C311.549 65.3844 312.163 65.9107 313.274 66.3786C314.662 67.038 316.25 67.1419 317.712 66.6689C319.175 66.196 320.401 65.182 321.14 63.8345C321.783 62.8111 321.959 62.0216 322.193 62.0508C322.427 62.08 322.602 62.9573 322.193 64.3024C321.859 65.1902 321.328 65.9901 320.638 66.6412C319.949 67.2923 319.12 67.7773 318.214 68.0594C317.309 68.3414 316.351 68.413 315.414 68.2687C314.477 68.1244 313.585 67.7679 312.806 67.2266C311.578 66.4956 311.227 65.6475 311.373 65.5306Z" fill="#251A51"/>
<path d="M345.089 61.7876C345.089 61.5537 345.732 61.4367 346.405 60.9689C346.587 60.8607 346.746 60.7169 346.872 60.5461C346.997 60.3753 347.087 60.1809 347.136 59.9746C347.136 59.536 347.136 59.1851 346.814 59.0974C346.736 59.0609 346.652 59.0419 346.566 59.0419C346.48 59.0419 346.395 59.0609 346.317 59.0974L345.031 58.4248C346.054 56.3779 346.99 54.9743 347.311 55.1205C347.633 55.2667 347.311 56.9043 346.376 59.0389L345.06 58.3663C345.271 58.0653 345.562 57.8297 345.9 57.6863C346.239 57.5429 346.611 57.4976 346.973 57.5555C347.336 57.6135 347.676 57.7723 347.953 58.014C348.23 58.2556 348.433 58.5702 348.54 58.9219C348.702 59.3957 348.702 59.9102 348.54 60.384C348.4 60.7401 348.183 61.061 347.905 61.3238C347.627 61.5866 347.295 61.7849 346.931 61.9046C345.732 62.2847 345.06 61.9631 345.089 61.7876Z" fill="#251A51"/>
<path d="M324.591 36.0257C324.444 35.6456 325.848 34.8561 327.515 35.3239C329.182 35.7918 330.147 37.1661 329.825 37.4293C329.503 37.6925 328.45 37.1369 327.135 36.786C325.819 36.4351 324.795 36.4351 324.591 36.0257Z" fill="#251A51"/>
<path d="M301.577 32.3705C301.402 32.0196 302.776 31.0546 304.764 31.2301C306.753 31.4055 307.923 32.6044 307.689 32.9261C307.455 33.2478 306.197 32.9261 304.764 32.7507C303.332 32.5752 301.753 32.7799 301.577 32.3705Z" fill="#251A51"/>
<path d="M344.241 48.8921C336.814 41.6401 334.621 29.5925 332.544 19.4164C329.067 21.8903 325.035 23.4721 320.803 24.0228C316.571 24.5735 312.269 24.0762 308.274 22.5746C305.738 25.5084 302.782 28.0507 299.501 30.1189C299.095 30.4482 298.627 30.6929 298.125 30.8385C297.623 30.9842 297.096 31.0278 296.577 30.9669C295.349 30.5868 294.793 29.1539 294.501 28.0428C293.449 23.9854 293.591 19.7105 294.91 15.732C295.6 13.7724 296.692 11.9792 298.118 10.4682C299.543 8.95714 301.27 7.76185 303.186 6.9595C307.486 5.65406 312.087 5.72564 316.345 7.16421C322.85 8.84502 329.09 11.4235 334.884 14.8255C340.811 17.8139 345.574 22.6905 348.423 28.6861C350.85 34.7976 350.82 46.7282 345.031 49.8278" fill="#E3707F"/>
<path d="M300.408 99.831C307.601 96.9069 252.276 117.376 252.276 117.376L257.89 155.215L278.915 148.314L300.408 99.831Z" fill="#251A51"/>
<path d="M226.982 99.831C226.982 99.831 241.427 79.6543 238.854 79.6543C236.281 79.6543 234.936 83.4557 230.082 86.0582C230.082 86.0582 238.065 60.8226 235.608 61.3782C233.152 61.9338 227.245 78.1045 226.836 78.0752C226.426 78.046 231.895 59.9161 229.76 59.6822C227.625 59.4483 222.683 76.35 222.683 76.35C222.683 76.35 226.134 60.2963 223.97 59.9454C221.806 59.5945 218.59 74.3615 218.59 74.3615C218.59 74.3615 221.163 61.9631 219.174 61.6414C217.975 61.466 207.068 92.2574 207.068 92.2574L227.011 99.831" fill="#F6AEA6"/>
<path d="M338.626 171.707C338.288 170.764 338.071 169.781 337.983 168.783C337.691 166.882 337.311 164.104 336.872 160.683C335.965 153.84 334.854 144.366 333.714 133.898C333.378 131.286 333.378 128.643 333.714 126.032C334.082 123.537 335.09 121.179 336.638 119.189C339.343 115.92 343.11 113.705 347.282 112.931C350.001 112.414 352.785 112.335 355.528 112.697C356.534 112.752 357.523 112.979 358.452 113.37C357.48 113.463 356.501 113.463 355.528 113.37C352.848 113.25 350.163 113.486 347.545 114.072C343.709 114.95 340.28 117.092 337.808 120.154C336.409 121.952 335.52 124.093 335.234 126.353C334.913 128.828 334.913 131.335 335.234 133.81C336.346 144.278 337.311 153.782 337.925 160.654C338.246 164.104 338.451 166.882 338.597 168.812C338.718 169.773 338.727 170.744 338.626 171.707Z" fill="#251A51"/>
<path d="M336.667 169.309C344.191 169.339 351.703 169.876 359.154 170.918C366.653 171.465 374.106 172.51 381.466 174.046C373.942 174.017 366.43 173.479 358.979 172.438C351.481 171.891 344.027 170.846 336.667 169.309Z" fill="#251A51"/>
<path d="M271.254 3.21658V46.4942H242.334L241.398 62.8988L224.409 45.5585H160.72L166.335 0L271.254 3.21658Z" fill="#6E3281"/>
<path d="M261.37 23.9197C232.918 23.3348 204.29 23.1302 175.838 23.7442C175.73 23.7442 175.626 23.7874 175.549 23.8641C175.472 23.9409 175.429 24.045 175.429 24.1536C175.429 24.2622 175.472 24.3663 175.549 24.4431C175.626 24.5199 175.73 24.563 175.838 24.563C204.29 25.1771 232.918 24.9724 261.37 24.3876C261.432 24.3876 261.492 24.3629 261.536 24.319C261.58 24.2752 261.604 24.2157 261.604 24.1536C261.604 24.0916 261.58 24.0321 261.536 23.9882C261.492 23.9443 261.432 23.9197 261.37 23.9197Z" fill="#E4E1EA"/>
<path d="M261.37 32.6629C243.825 32.1073 226.28 31.9611 208.735 32.4875C208.641 32.5122 208.559 32.5673 208.5 32.644C208.441 32.7207 208.409 32.8147 208.409 32.9115C208.409 33.0083 208.441 33.1023 208.5 33.179C208.559 33.2557 208.641 33.3107 208.735 33.3355C226.28 33.8618 243.825 33.7156 261.37 33.16C261.422 33.1421 261.466 33.1085 261.498 33.064C261.53 33.0194 261.547 32.9661 261.547 32.9115C261.547 32.8568 261.53 32.8035 261.498 32.759C261.466 32.7145 261.422 32.6809 261.37 32.6629Z" fill="#E4E1EA"/>
<path d="M303.975 44.1257C303.595 44.3011 303.01 43.921 302.455 43.3946C301.899 42.8683 301.49 42.3419 301.665 41.9325C301.841 41.5231 302.747 41.5816 303.507 42.2834C304.268 42.9852 304.326 43.9502 303.975 44.1257Z" fill="#251A51"/>
<path d="M326.17 46.6697C325.789 46.8451 325.117 46.1726 324.444 45.2953C323.772 44.4181 323.333 43.5993 323.596 43.2484C323.859 42.8975 324.883 43.2484 325.672 44.3888C326.462 45.5293 326.55 46.5235 326.17 46.6697Z" fill="#251A51"/>
<g opacity="0.18">
<path d="M321.081 65.706C321.725 67.6944 321.081 69.6829 319.765 70.0923C318.449 70.5016 316.841 69.2443 316.169 67.1681C315.496 65.0919 316.169 63.1912 317.514 62.7526C318.859 62.314 320.467 63.6883 321.081 65.706Z" fill="#251A51"/>
</g>
<g opacity="0.13">
<path d="M334.474 51.8162C334.474 53.9216 331.784 55.6469 328.421 55.6761C325.058 55.7053 322.339 54.0093 322.31 51.9039C322.28 49.7985 325.029 48.1025 328.392 48.0733C331.755 48.044 334.474 49.7401 334.474 51.8162Z" fill="#251A51"/>
</g>
<g opacity="0.13">
<path d="M309.414 53.6C309.414 55.7054 306.724 57.4306 303.361 57.4599C299.998 57.4891 297.279 55.7931 297.25 53.6877C297.221 51.5823 299.969 49.857 303.332 49.8278C306.695 49.7985 309.414 51.5238 309.414 53.6Z" fill="#251A51"/>
</g>
<path d="M345.732 31.2301C345.732 31.0546 346.113 30.3821 345.732 29.1832C345.352 27.9843 344.124 26.259 343.188 24.3875C341.776 22.1281 340.786 19.6314 340.264 17.0186C342.127 18.944 343.606 21.2067 344.621 23.6857C345.608 25.3295 346.365 27.1004 346.873 28.9492C346.998 29.6044 346.873 30.2827 346.522 30.8499C346.054 31.2301 345.791 31.2885 345.732 31.2301Z" fill="#6338A1"/>
<path d="M281.167 156.267L276.254 221.476L344.183 230.571L339.592 155.332L281.167 156.267Z" fill="#8AA9FC"/>
<path d="M286.547 112.083V163.783L294.501 160.829V101.907L286.547 104.305" fill="#8AA9FC"/>
<path d="M349.504 104.89C349.504 104.89 318.947 108.837 327.895 158.928L335.585 159.776C335.585 159.776 326.813 112.697 355.762 109.335L349.504 104.89Z" fill="#8AA9FC"/>
<path d="M340.469 163.022C340.469 163.022 350.937 224.751 336.17 223.231C287.6 218.231 258.68 217.558 258.68 217.558L250.639 234.284C250.434 237.208 342.604 263.526 357.429 254.753C367.898 248.583 384.536 232.003 376.992 182.41L375.208 165.8L340.469 163.022Z" fill="#F6AEA6"/>
<path d="M367.43 122.113C367.43 122.113 378.746 132.991 381.29 174.163L337.428 169.309C337.428 169.309 330.117 99.1877 367.43 122.113Z" fill="#251A51"/>
<path d="M263.797 217.558C263.797 217.558 240.024 210.101 240.843 212.558C241.661 215.014 245.697 215.102 249.615 219.049C249.615 219.049 223.064 219.342 224.321 221.535C225.579 223.728 242.919 224.284 243.007 224.634C243.094 224.985 224.087 225.482 224.526 227.559C224.964 229.635 242.626 229.108 242.626 229.108C242.626 229.108 226.251 230.834 226.573 233.027C226.894 235.22 242.012 233.641 242.012 233.641C242.012 233.641 229.38 235.074 229.702 237.062C229.906 238.261 266.722 238.524 266.809 239.431C266.809 239.869 263.68 217.616 263.68 217.616" fill="#F6AEA6"/>
<path d="M294.091 156.618C294.296 156.618 294.735 157.642 294.91 159.543C295.017 160.73 294.794 161.924 294.267 162.993C293.937 163.718 293.412 164.337 292.752 164.781C292.091 165.225 291.319 165.476 290.524 165.508C289.746 165.474 288.988 165.251 288.316 164.859C287.643 164.467 287.076 163.917 286.664 163.256C286.025 162.253 285.643 161.108 285.553 159.923C285.553 158.022 285.553 156.998 285.874 156.998C286.196 156.998 286.255 158.168 286.635 159.923C286.83 160.892 287.229 161.809 287.804 162.613C288.11 163.059 288.514 163.428 288.986 163.692C289.458 163.955 289.984 164.107 290.524 164.133C291.052 164.113 291.564 163.95 292.007 163.662C292.45 163.374 292.806 162.971 293.039 162.496C293.554 161.607 293.826 160.599 293.828 159.572C293.945 157.817 293.857 156.794 294.091 156.618Z" fill="#251A51"/>
<path d="M289.296 157.642C289.296 157.817 289.296 158.168 289.296 158.548C289.296 158.928 289.705 159.133 290.085 158.899C290.465 158.665 290.436 158.373 290.085 158.022C289.734 157.671 289.442 157.7 289.296 157.525C289.15 157.349 289.588 156.794 290.524 157.028C290.805 157.1 291.062 157.242 291.272 157.442C291.482 157.641 291.637 157.891 291.723 158.168C291.816 158.542 291.791 158.934 291.652 159.293C291.514 159.652 291.268 159.96 290.948 160.174C290.629 160.388 290.251 160.498 289.866 160.49C289.482 160.482 289.109 160.355 288.799 160.127C288.579 159.939 288.41 159.698 288.308 159.427C288.206 159.156 288.174 158.864 288.214 158.578C288.506 157.613 289.237 157.466 289.296 157.642Z" fill="#251A51"/>
<path d="M334.825 155.536C334.825 155.536 335.585 156.18 335.381 157.525C335.265 158.436 334.83 159.276 334.154 159.898C333.478 160.519 332.603 160.881 331.686 160.92C330.768 160.958 329.867 160.671 329.141 160.108C328.415 159.546 327.911 158.745 327.719 157.847C327.427 156.531 327.953 155.77 328.099 155.829C328.246 155.887 328.275 156.589 328.743 157.466C328.951 158.056 329.344 158.563 329.862 158.913C330.38 159.264 330.997 159.439 331.622 159.412C332.247 159.386 332.847 159.16 333.334 158.768C333.821 158.376 334.169 157.837 334.328 157.232C334.737 156.326 334.62 155.624 334.825 155.536Z" fill="#251A51"/>
<path d="M329.883 153.87C329.883 153.87 330.146 153.139 331.141 153.139C331.442 153.135 331.74 153.199 332.013 153.325C332.286 153.452 332.528 153.638 332.72 153.87C332.96 154.207 333.089 154.611 333.089 155.025C333.089 155.439 332.96 155.843 332.72 156.18C332.503 156.568 332.15 156.864 331.73 157.009C331.309 157.155 330.85 157.141 330.439 156.969C330.121 156.814 329.866 156.556 329.712 156.238C329.558 155.92 329.515 155.56 329.591 155.215C329.616 155.003 329.697 154.803 329.826 154.633C329.954 154.464 330.125 154.331 330.322 154.25C330.614 154.25 330.76 154.25 330.79 154.25C330.819 154.25 330.497 154.688 330.79 155.156C331.082 155.624 331.141 155.712 331.55 155.156C331.959 154.601 331.55 154.25 330.994 153.987C330.439 153.723 330 153.87 329.883 153.87Z" fill="#251A51"/>
<path d="M328.275 186.035C327.866 186.035 327.807 184.632 327.836 183.111C327.866 181.591 328.041 180.187 328.48 180.187C328.918 180.187 329.416 181.445 329.357 183.111C329.299 184.778 328.685 186.035 328.275 186.035Z" fill="#251A51"/>
<path d="M322.924 196.27C322.631 195.948 323.304 194.837 324.21 193.58C325.117 192.322 325.965 191.357 326.345 191.533C326.725 191.708 326.345 193.112 325.439 194.457C324.532 195.802 323.216 196.562 322.924 196.27Z" fill="#251A51"/>
<path d="M312.718 201.534C312.718 201.124 313.859 200.598 315.321 200.13C316.783 199.662 318.04 199.34 318.245 199.721C318.45 200.101 317.397 201.036 315.789 201.563C314.18 202.089 312.777 201.943 312.718 201.534Z" fill="#251A51"/>
<path d="M301.402 200.042C301.606 199.662 302.864 199.896 304.326 200.335C305.788 200.773 307.045 201.212 306.987 201.65C306.928 202.089 305.554 202.235 303.917 201.65C302.279 201.066 301.08 200.422 301.402 200.042Z" fill="#251A51"/>
<path d="M292.805 192.235C293.185 192.03 294.092 192.966 295.027 194.194C295.963 195.422 296.694 196.504 296.402 196.826C296.109 197.147 294.881 196.475 293.828 195.13C292.776 193.784 292.454 192.439 292.805 192.235Z" fill="#251A51"/>
<path d="M290.261 180.977C290.699 180.977 290.904 182.292 291.021 183.901C291.138 185.509 291.021 186.825 290.699 186.825C290.378 186.825 289.617 185.685 289.5 183.901C289.383 182.117 289.851 180.918 290.261 180.977Z" fill="#251A51"/>
<path d="M300.086 179.164C300.086 179.602 298.77 179.895 297.162 179.836C295.554 179.778 294.238 179.398 294.238 178.959C294.238 178.52 295.583 178.257 297.162 178.316C298.741 178.374 300.115 178.754 300.086 179.164Z" fill="#251A51"/>
<path d="M311.783 179.602C311.783 180.012 310.438 180.304 308.859 180.246C307.28 180.187 305.935 179.807 305.935 179.398C305.935 178.988 307.28 178.667 308.859 178.725C310.438 178.784 311.812 179.193 311.783 179.602Z" fill="#251A51"/>
<path d="M323.479 180.012C323.479 180.45 322.134 180.743 320.555 180.684C318.976 180.626 317.631 180.216 317.631 179.807C317.631 179.398 318.976 179.105 320.555 179.164C322.134 179.222 323.479 179.602 323.479 180.012Z" fill="#251A51"/>
<path d="M328.333 310.839C330.27 302.637 331.483 294.281 331.959 285.867C331.959 283.293 327.865 282.65 327.398 285.252C325.955 293.567 325.241 301.991 325.263 310.43C325.286 310.794 325.435 311.139 325.684 311.407C325.934 311.674 326.268 311.846 326.63 311.894C326.992 311.943 327.36 311.864 327.671 311.671C327.981 311.479 328.215 311.185 328.333 310.839Z" fill="#E8947E"/>
<path d="M370.822 338.56L370.383 338.18C369.476 337.399 368.307 336.99 367.111 337.036C365.915 337.082 364.78 337.58 363.936 338.428C363.091 339.276 362.599 340.413 362.558 341.609C362.518 342.805 362.931 343.972 363.716 344.876L364.067 345.286C364.962 346.164 366.168 346.654 367.422 346.649C368.677 346.644 369.879 346.145 370.767 345.26C371.656 344.375 372.16 343.176 372.171 341.921C372.181 340.667 371.696 339.459 370.822 338.56Z" fill="#251A51"/>
<path d="M271.704 402.047C288.162 335.247 247.35 267.753 180.55 251.296C113.749 234.838 46.2557 275.65 29.7984 342.45C13.3412 409.251 54.1524 476.744 120.953 493.202C187.753 509.659 255.247 468.847 271.704 402.047Z" fill="#DDD2F3"/>
<path d="M169.639 330.226L252.276 361.193L244.38 327.828L265.873 322.36C265.873 322.36 289.003 387.598 272.949 389.353C244.848 392.277 202.302 381.253 202.302 381.253L169.639 330.226Z" fill="#F6AEA6"/>
<path d="M198.325 405.026L198.15 470.381C176.628 496.699 101.652 462.632 101.652 462.632L100.775 435.905L99.0498 372.246C100.775 346.894 124.315 334.437 124.315 334.437C136.26 329.153 149.286 326.768 162.329 327.477C176.306 328.179 179.874 334.876 185.488 347.596C190.284 357.889 198.325 367.568 198.325 405.026Z" fill="#6338A1"/>
<path d="M132.473 393.154C132.473 393.154 121.975 454.854 136.742 453.334C185.313 448.333 214.262 447.661 214.262 447.661L222.449 464.387C222.625 467.311 130.455 493.629 115.659 484.856C105.19 478.686 88.5226 462.106 96.0962 412.512L97.8799 395.903L132.473 393.154Z" fill="#F6AEA6"/>
<path d="M105.746 352.216C105.746 352.216 94.4 363.094 91.8853 404.266L135.748 399.412C135.748 399.412 143.029 329.32 105.746 352.216Z" fill="#6338A1"/>
<path d="M127.707 265.924L128.701 278.995C128.701 278.995 117.589 280.486 120.747 290.691C123.905 300.897 131.508 296.393 131.508 296.393C131.508 296.393 133.409 322.36 160.019 314.114C181.19 307.564 179.903 280.164 177.213 256.771C176.963 254.63 176.273 252.564 175.187 250.702C174.1 248.84 172.641 247.223 170.9 245.952C169.16 244.681 167.175 243.783 165.071 243.315C162.967 242.847 160.789 242.819 158.674 243.232L142.678 246.361C138.217 247.217 134.226 249.683 131.466 253.29C128.705 256.897 127.367 261.394 127.707 265.924Z" fill="#F6AEA6"/>
<path d="M128.7 289.843L135.865 328.062C136.248 330.103 137.041 332.046 138.197 333.771C139.352 335.497 140.846 336.97 142.587 338.102C144.328 339.234 146.281 340 148.328 340.355C150.374 340.711 152.471 340.647 154.492 340.168C158.282 339.253 161.584 336.932 163.728 333.675C165.873 330.417 166.7 326.467 166.042 322.623L162.153 300.721L128.7 289.843Z" fill="#F6AEA6"/>
<path d="M158.118 290.282C158.118 290.282 158.439 290.604 158.937 290.662C159.434 290.721 160.135 290.224 160.311 289.2C160.499 287.881 160.499 286.542 160.311 285.223L159.931 280.135C159.44 275.772 159.44 271.368 159.931 267.006C160.975 271.274 161.506 275.653 161.51 280.047L161.773 285.135C161.925 286.595 161.816 288.071 161.451 289.492C161.1 290.808 159.726 291.627 158.878 291.247C158.03 290.867 158.118 290.253 158.118 290.282Z" fill="#251A51"/>
<path d="M166.89 311.394C166.89 311.394 165.955 312.71 163.761 313.968C160.88 315.59 157.641 316.474 154.335 316.541C151.029 316.607 147.757 315.854 144.813 314.348C142.561 313.207 141.45 312.067 141.567 311.921C145.569 313.791 149.903 314.844 154.316 315.02C158.705 314.649 162.978 313.417 166.89 311.394Z" fill="#251A51"/>
<path d="M161.569 295.633C161.569 295.633 161.364 296.598 160.194 297.417C159.406 297.95 158.507 298.298 157.565 298.434C156.623 298.571 155.663 298.493 154.755 298.206C153.85 297.918 153.023 297.425 152.339 296.766C151.654 296.107 151.13 295.299 150.808 294.405C150.34 293.06 150.544 292.153 150.808 292.153C151.071 292.153 151.217 292.943 151.831 293.966C152.607 295.312 153.827 296.346 155.282 296.891C156.752 297.313 158.324 297.209 159.726 296.598C160.779 296.013 161.393 295.487 161.569 295.633Z" fill="#251A51"/>
<path d="M127.852 291.89C127.852 292.066 127.209 292.387 126.039 292.037C125.677 291.921 125.347 291.723 125.073 291.46C124.799 291.196 124.59 290.873 124.46 290.516C124.298 290.042 124.298 289.528 124.46 289.054C124.541 288.766 124.689 288.502 124.892 288.283C125.096 288.064 125.349 287.897 125.63 287.796C126.031 287.618 126.483 287.59 126.902 287.719C127.322 287.848 127.68 288.125 127.911 288.498L126.624 289.171C125.776 287.036 125.367 285.399 125.689 285.252C126.01 285.106 126.946 286.51 127.969 288.586L126.683 289.259C126.603 289.212 126.512 289.188 126.42 289.188C126.327 289.188 126.236 289.212 126.156 289.259C125.893 289.259 125.747 289.697 125.835 290.136C125.945 290.547 126.206 290.902 126.566 291.13C127.209 291.539 127.882 291.656 127.852 291.89Z" fill="#251A51"/>
<path d="M148.351 266.128C148.351 266.538 147.006 266.538 145.69 266.918C144.374 267.298 143.322 267.824 143 267.532C142.678 267.24 143.497 265.894 145.31 265.427C147.123 264.959 148.498 265.748 148.351 266.128Z" fill="#251A51"/>
<path d="M171.335 262.502C171.335 262.883 169.873 262.678 168.411 262.853C166.949 263.029 165.487 263.38 165.487 263.029C165.487 262.678 166.452 261.508 168.411 261.333C170.37 261.157 171.54 262.064 171.335 262.502Z" fill="#251A51"/>
<path d="M128.701 278.995C136.128 271.743 138.292 259.695 140.397 249.519C143.876 251.991 147.908 253.571 152.139 254.122C156.371 254.672 160.673 254.176 164.668 252.677C167.199 255.616 170.156 258.159 173.44 260.222C173.844 260.555 174.312 260.803 174.815 260.949C175.318 261.094 175.845 261.136 176.365 261.07C177.622 260.689 178.178 259.286 178.47 258.145C179.526 254.087 179.374 249.808 178.031 245.835C177.349 243.876 176.262 242.083 174.841 240.572C173.42 239.06 171.698 237.865 169.785 237.062C165.483 235.77 160.886 235.842 156.626 237.267C150.121 238.948 143.881 241.526 138.087 244.928C132.16 247.917 127.397 252.793 124.548 258.789C122.121 264.929 122.121 276.831 127.94 279.93" fill="#251A51"/>
<path d="M172.534 329.934C165.34 327.01 220.666 347.479 220.666 347.479L215.051 385.317L193.997 378.416L172.534 329.934Z" fill="#6338A1"/>
<path d="M209.145 447.661C209.145 447.661 232.918 440.204 232.099 442.66C231.281 445.117 227.245 445.204 223.327 449.152C223.327 449.152 249.908 449.444 248.621 451.638C247.334 453.831 230.053 454.386 229.965 454.737C229.877 455.088 248.884 455.585 248.446 457.661C248.007 459.737 230.345 459.211 230.345 459.211C230.345 459.211 246.72 460.936 246.399 463.129C246.077 465.323 230.959 463.744 230.959 463.744C230.959 463.744 243.591 465.176 243.27 467.165C243.065 468.364 206.25 468.627 206.162 469.533C206.162 470.001 209.291 447.719 209.291 447.719" fill="#F6AEA6"/>
<path d="M245.843 329.934C245.843 329.934 231.426 309.757 234.146 309.757C236.865 309.757 238.064 313.588 242.918 316.19C242.918 316.19 234.935 290.955 237.392 291.481C239.848 292.007 245.755 308.207 246.164 308.178C246.574 308.149 241.076 290.019 243.24 289.785C245.404 289.551 250.287 306.453 250.287 306.453C250.287 306.453 246.866 290.399 249.03 290.048C251.194 289.697 254.41 304.464 254.41 304.464C254.41 304.464 251.837 292.066 253.826 291.744C255.024 291.569 265.902 322.36 265.902 322.36L245.96 329.934" fill="#F6AEA6"/>
<path d="M112.823 385.434C112.998 385.434 113.524 386.37 113.554 388.359C113.552 388.96 113.412 389.553 113.143 390.091C112.874 390.628 112.484 391.096 112.004 391.458C111.68 391.698 111.311 391.869 110.918 391.96C110.526 392.05 110.119 392.059 109.723 391.984C108.949 391.776 108.262 391.325 107.764 390.698C106.828 389.616 106.214 388.973 105.249 388.856C104.84 388.794 104.423 388.819 104.025 388.93C103.627 389.041 103.257 389.235 102.939 389.499C101.828 390.522 101.857 391.721 101.623 391.692C101.389 391.663 100.892 390.435 102.179 388.768C102.565 388.301 103.061 387.936 103.622 387.707C104.183 387.477 104.792 387.39 105.395 387.452C106.127 387.507 106.827 387.771 107.413 388.212C107.943 388.655 108.433 389.144 108.875 389.674C110.395 391.751 112.384 389.674 112.472 388.242C112.559 386.809 112.589 385.464 112.823 385.434Z" fill="#F9F2FC"/>
<path d="M125.952 374.235C125.952 374.235 126.391 373.153 127.999 372.129C128.518 371.819 129.102 371.632 129.705 371.581C130.308 371.53 130.915 371.618 131.479 371.837C131.846 371.991 132.178 372.218 132.455 372.504C132.731 372.791 132.946 373.131 133.087 373.504C133.339 374.263 133.339 375.084 133.087 375.843C132.596 376.812 132.502 377.934 132.824 378.972C132.975 379.356 133.212 379.7 133.516 379.978C133.82 380.257 134.183 380.463 134.578 380.58C136.04 381.019 137.034 380.376 137.122 380.58C137.21 380.785 136.42 381.867 134.198 381.633C133.576 381.559 132.982 381.331 132.471 380.968C131.96 380.605 131.549 380.12 131.274 379.557C130.95 378.895 130.819 378.155 130.894 377.422C130.995 376.748 131.151 376.083 131.362 375.434C132.356 373.065 129.607 372.51 128.262 373.124C126.917 373.738 125.952 374.44 125.952 374.235Z" fill="#F9F2FC"/>
<path d="M124.928 346.309C124.928 346.309 125.367 345.227 126.975 344.204C127.495 343.892 128.08 343.706 128.684 343.66C129.288 343.614 129.895 343.71 130.455 343.94C130.82 344.091 131.15 344.313 131.427 344.595C131.703 344.876 131.92 345.211 132.063 345.578C132.314 346.348 132.314 347.177 132.063 347.947C131.571 348.905 131.477 350.019 131.8 351.046C131.946 351.433 132.18 351.781 132.485 352.06C132.79 352.339 133.157 352.543 133.555 352.654C135.017 353.093 136.011 352.45 136.099 352.654C136.187 352.859 135.397 353.941 133.175 353.736C132.551 353.655 131.958 353.42 131.447 353.052C130.937 352.685 130.526 352.196 130.25 351.631C129.929 350.979 129.798 350.249 129.87 349.526C129.968 348.841 130.125 348.166 130.338 347.508C131.332 345.169 128.584 344.584 127.239 345.198C125.893 345.812 125.075 346.514 124.928 346.309Z" fill="#F9F2FC"/>
<path d="M152.62 382.686C152.62 382.686 151.509 382.335 150.339 380.814C149.99 380.325 149.755 379.763 149.654 379.171C149.553 378.578 149.587 377.97 149.755 377.393C149.875 377.012 150.072 376.66 150.333 376.358C150.595 376.057 150.915 375.812 151.275 375.638C152.017 375.332 152.84 375.281 153.614 375.492C154.619 375.894 155.739 375.894 156.743 375.492C157.108 375.297 157.426 375.026 157.678 374.699C157.93 374.371 158.11 373.994 158.205 373.591C158.498 372.1 157.767 371.164 157.971 371.047C158.176 370.931 159.287 371.632 159.258 373.738C159.17 374.707 158.722 375.609 158.002 376.264C157.282 376.919 156.342 377.28 155.369 377.276C154.679 377.246 153.993 377.149 153.322 376.984C150.895 376.194 150.398 379.001 151.275 380.259C152.152 381.516 152.825 382.51 152.62 382.686Z" fill="#F9F2FC"/>
<path d="M171.51 411.869C171.51 412.015 170.984 412.922 169.288 413.828C168.746 414.092 168.151 414.229 167.548 414.229C166.945 414.229 166.35 414.092 165.808 413.828C165.451 413.648 165.134 413.398 164.878 413.091C164.621 412.784 164.43 412.428 164.317 412.044C164.15 411.259 164.232 410.441 164.551 409.705C164.836 409.253 165.027 408.748 165.112 408.22C165.197 407.693 165.176 407.154 165.048 406.635C164.932 406.238 164.727 405.874 164.448 405.57C164.17 405.266 163.824 405.03 163.44 404.88C162.007 404.354 160.983 404.88 160.866 404.705C160.749 404.529 161.685 403.477 163.791 403.857C164.383 403.99 164.934 404.269 165.393 404.666C165.852 405.064 166.206 405.57 166.422 406.138C166.704 406.811 166.796 407.55 166.686 408.272C166.524 408.941 166.309 409.597 166.042 410.231C164.902 412.512 167.592 413.36 168.966 412.775C170.341 412.19 171.364 411.664 171.51 411.869Z" fill="#F9F2FC"/>
<path d="M193.734 365.813C193.734 365.959 193.208 366.866 191.512 367.772C190.977 368.042 190.386 368.183 189.786 368.183C189.187 368.183 188.596 368.042 188.061 367.772C187.698 367.596 187.376 367.347 187.114 367.04C186.853 366.733 186.657 366.375 186.541 365.989C186.375 365.203 186.457 364.386 186.775 363.649C187.354 362.749 187.564 361.659 187.359 360.608C187.226 360.217 187.011 359.858 186.729 359.555C186.447 359.253 186.103 359.014 185.722 358.854C184.289 358.327 183.266 358.854 183.178 358.678C183.09 358.503 183.967 357.45 186.102 357.83C186.695 357.964 187.245 358.242 187.704 358.64C188.164 359.038 188.517 359.543 188.734 360.111C189.013 360.786 189.104 361.523 188.997 362.246C188.835 362.915 188.62 363.57 188.354 364.205C187.213 366.486 189.903 367.334 191.278 366.778C192.652 366.223 193.588 365.609 193.734 365.813Z" fill="#F9F2FC"/>
<path d="M208.881 358.824C208.881 358.678 210.051 358.824 211.455 360.228C211.896 360.643 212.234 361.155 212.442 361.724C212.65 362.292 212.722 362.902 212.654 363.503C212.62 363.898 212.5 364.28 212.303 364.623C212.106 364.967 211.837 365.263 211.513 365.492C210.834 365.923 210.035 366.128 209.232 366.076C208.222 365.899 207.183 366.097 206.308 366.632C205.982 366.889 205.714 367.212 205.523 367.58C205.331 367.948 205.22 368.352 205.197 368.767C205.197 370.287 206.074 371.077 205.899 371.223C205.723 371.369 204.495 370.901 204.144 368.825C204.067 368.225 204.138 367.615 204.352 367.049C204.566 366.482 204.917 365.978 205.372 365.579C205.927 365.087 206.604 364.754 207.332 364.614C208.013 364.557 208.697 364.557 209.378 364.614C211.923 364.907 211.806 362.1 210.782 360.988C209.759 359.877 208.735 359 208.881 358.824Z" fill="#F9F2FC"/>
<path d="M147.532 435.701C147.532 435.701 147.035 436.753 145.339 437.631C144.799 437.901 144.203 438.042 143.599 438.042C142.995 438.042 142.4 437.901 141.859 437.631C141.502 437.451 141.185 437.2 140.929 436.893C140.672 436.587 140.481 436.23 140.368 435.847C140.203 435.071 140.285 434.264 140.602 433.537C141.158 432.192 141.45 431.344 141.099 430.437C140.969 430.048 140.759 429.691 140.482 429.389C140.204 429.087 139.867 428.846 139.491 428.683C138.058 428.156 137.005 428.683 136.918 428.537C136.83 428.39 137.707 427.308 139.842 427.659C140.434 427.793 140.985 428.071 141.444 428.469C141.903 428.867 142.257 429.372 142.473 429.94C142.759 430.624 142.84 431.375 142.707 432.104C142.569 432.766 142.363 433.413 142.093 434.034C140.924 436.344 143.643 437.192 145.018 436.607C146.392 436.022 147.415 435.467 147.532 435.701Z" fill="#F9F2FC"/>
<path d="M180.429 391.37C180.429 391.37 179.376 390.903 178.412 389.265C178.109 388.74 177.936 388.151 177.905 387.546C177.875 386.941 177.988 386.338 178.236 385.785C178.396 385.42 178.629 385.092 178.921 384.821C179.213 384.549 179.557 384.34 179.932 384.206C180.691 383.952 181.512 383.952 182.271 384.206C183.223 384.709 184.326 384.844 185.371 384.586C185.76 384.436 186.113 384.205 186.406 383.907C186.698 383.61 186.924 383.253 187.067 382.861C187.535 381.428 186.921 380.405 187.067 380.317C187.213 380.229 188.324 381.048 188.032 383.241C187.918 383.839 187.662 384.401 187.285 384.879C186.908 385.358 186.423 385.739 185.868 385.99C185.204 386.306 184.461 386.418 183.733 386.312C183.052 386.2 182.385 386.014 181.745 385.756C179.435 384.703 178.821 387.452 179.318 388.68C179.815 389.908 180.634 391.224 180.429 391.37Z" fill="#F9F2FC"/>
<path d="M186.336 415.173C186.336 415.173 185.283 414.705 184.318 413.068C184.016 412.543 183.842 411.954 183.812 411.349C183.781 410.744 183.895 410.141 184.143 409.588C184.303 409.223 184.536 408.895 184.828 408.623C185.119 408.352 185.463 408.143 185.839 408.009C186.615 407.816 187.432 407.867 188.178 408.155C188.644 408.42 189.158 408.59 189.69 408.655C190.222 408.72 190.762 408.679 191.278 408.535C191.666 408.397 192.018 408.173 192.306 407.879C192.595 407.585 192.813 407.23 192.945 406.839C193.442 405.377 192.945 404.383 192.945 404.266C192.945 404.149 194.202 405.026 193.91 407.19C193.686 408.125 193.121 408.944 192.326 409.484C191.531 410.025 190.563 410.25 189.611 410.114C188.933 410.002 188.267 409.826 187.623 409.588C185.312 408.535 184.698 411.255 185.195 412.512C185.693 413.77 186.541 415.056 186.336 415.173Z" fill="#F9F2FC"/>
<path d="M138.73 405.026C138.584 405.026 138.262 403.944 138.73 402.102C138.862 401.515 139.129 400.966 139.51 400.499C139.891 400.032 140.374 399.66 140.923 399.412C141.292 399.251 141.69 399.168 142.093 399.168C142.496 399.168 142.894 399.251 143.263 399.412C143.96 399.795 144.529 400.375 144.9 401.079C145.573 402.365 146.041 403.126 146.947 403.447C147.324 403.617 147.733 403.704 148.146 403.704C148.559 403.704 148.968 403.617 149.345 403.447C150.661 402.687 150.866 401.517 151.099 401.576C151.333 401.634 151.538 402.979 149.93 404.324C149.444 404.691 148.876 404.936 148.276 405.038C147.675 405.139 147.059 405.095 146.479 404.909C145.791 404.671 145.176 404.258 144.696 403.71C144.27 403.162 143.898 402.575 143.584 401.956C142.561 399.617 140.192 401.166 139.754 402.57C139.315 403.974 138.964 405.056 138.73 405.026Z" fill="#F9F2FC"/>
<path d="M181.716 434.414C181.716 434.414 181.248 433.361 181.716 431.49C181.841 430.9 182.106 430.348 182.487 429.88C182.869 429.412 183.356 429.042 183.909 428.8C184.274 428.643 184.667 428.562 185.064 428.562C185.461 428.562 185.854 428.643 186.219 428.8C186.93 429.174 187.511 429.755 187.886 430.467C188.558 431.753 188.997 432.513 189.933 432.835C190.302 433.012 190.707 433.103 191.117 433.103C191.527 433.103 191.931 433.012 192.301 432.835C193.617 432.075 193.851 430.905 194.056 430.964C194.26 431.022 194.494 432.367 192.915 433.712C192.431 434.084 191.864 434.331 191.263 434.433C190.661 434.535 190.044 434.488 189.465 434.297C188.759 434.078 188.13 433.662 187.652 433.098C187.232 432.563 186.869 431.984 186.57 431.373C185.546 429.034 183.149 430.554 182.739 431.987C182.33 433.42 181.979 434.59 181.716 434.414Z" fill="#F9F2FC"/>
<path d="M180.488 345.373C180.312 345.373 180.02 344.291 180.488 342.449C180.624 341.867 180.893 341.324 181.273 340.862C181.653 340.401 182.135 340.033 182.681 339.788C183.05 339.627 183.448 339.544 183.85 339.544C184.253 339.544 184.651 339.627 185.02 339.788C185.724 340.163 186.295 340.745 186.658 341.455C187.33 342.742 187.798 343.502 188.704 343.824C189.083 343.986 189.495 344.058 189.906 344.033C190.318 344.007 190.717 343.885 191.073 343.677C192.389 342.946 192.623 341.777 192.857 341.835C193.091 341.894 193.295 343.239 191.687 344.584C191.201 344.95 190.632 345.192 190.031 345.289C189.429 345.386 188.814 345.334 188.237 345.139C187.536 344.924 186.909 344.519 186.424 343.97C186.023 343.41 185.662 342.824 185.342 342.215C184.318 339.876 181.95 341.396 181.511 342.829C181.072 344.262 180.721 345.403 180.488 345.373Z" fill="#F9F2FC"/>
<path d="M166.422 446.286C166.422 446.286 165.253 446.286 163.703 445.175C163.217 444.821 162.82 444.36 162.541 443.827C162.262 443.295 162.109 442.706 162.095 442.105C162.092 441.706 162.171 441.311 162.327 440.944C162.483 440.577 162.712 440.245 163.001 439.97C163.62 439.455 164.39 439.158 165.194 439.122C166.627 439.122 167.504 438.888 168.118 438.157C168.402 437.864 168.622 437.515 168.763 437.133C168.904 436.75 168.963 436.342 168.937 435.935C168.762 434.414 167.767 433.742 167.914 433.566C168.06 433.391 169.376 433.712 169.99 435.73C170.14 436.321 170.142 436.941 169.994 437.533C169.846 438.125 169.553 438.671 169.142 439.122C168.664 439.68 168.034 440.087 167.329 440.292C166.671 440.477 165.994 440.585 165.311 440.613C162.767 440.613 163.235 443.538 164.375 444.386C165.516 445.234 166.569 446.023 166.422 446.286Z" fill="#F9F2FC"/>
<path d="M115.425 358.824C115.571 358.824 116.448 359.409 117.267 361.135C117.504 361.685 117.611 362.282 117.58 362.88C117.55 363.478 117.383 364.062 117.092 364.585C116.896 364.932 116.632 365.236 116.316 365.477C115.999 365.718 115.636 365.892 115.25 365.989C114.452 366.121 113.633 365.999 112.91 365.638C111.624 365.024 110.805 364.673 109.986 364.965C109.584 365.064 109.21 365.252 108.891 365.515C108.572 365.778 108.317 366.11 108.144 366.486C107.559 367.889 108.144 368.942 107.851 369.03C107.559 369.118 106.652 368.153 107.15 366.106C107.314 365.518 107.622 364.981 108.046 364.542C108.47 364.103 108.996 363.776 109.577 363.591C110.273 363.385 111.015 363.385 111.711 363.591C112.374 363.779 113.02 364.024 113.641 364.322C115.864 365.609 116.858 362.948 116.361 361.544C115.864 360.14 115.22 358.941 115.425 358.824Z" fill="#F9F2FC"/>
<path d="M164.668 349.993C164.814 349.993 165.691 350.578 166.481 352.304C166.724 352.857 166.835 353.46 166.805 354.064C166.774 354.668 166.603 355.257 166.306 355.783C166.121 356.138 165.86 356.448 165.541 356.691C165.223 356.934 164.855 357.103 164.463 357.187C163.676 357.306 162.87 357.183 162.153 356.836C161.298 356.25 160.257 356 159.229 356.134C158.835 356.251 158.47 356.449 158.157 356.716C157.845 356.983 157.592 357.313 157.416 357.684C156.802 359.058 157.416 360.14 157.094 360.228C156.773 360.316 155.925 359.351 156.393 357.304C156.557 356.717 156.865 356.179 157.289 355.74C157.713 355.301 158.239 354.975 158.82 354.789C159.524 354.567 160.279 354.567 160.984 354.789C161.641 354.964 162.279 355.21 162.884 355.52C165.107 356.778 166.101 354.146 165.604 352.596C165.107 351.046 164.434 350.11 164.668 349.993Z" fill="#F9F2FC"/>
<path d="M134.315 401.81C134.201 400.838 134.201 399.857 134.315 398.886C134.315 396.956 134.666 394.178 134.958 390.727C135.572 383.855 136.537 374.352 137.678 363.913C137.985 361.427 137.985 358.913 137.678 356.427C137.373 354.172 136.486 352.035 135.104 350.227C132.679 347.1 129.268 344.885 125.425 343.94C122.806 343.362 120.122 343.136 117.442 343.268C116.47 343.352 115.491 343.352 114.518 343.268C115.45 342.886 116.438 342.659 117.442 342.595C120.197 342.231 122.992 342.32 125.718 342.859C129.879 343.622 133.637 345.827 136.333 349.087C137.881 351.077 138.888 353.435 139.257 355.93C139.579 358.542 139.579 361.183 139.257 363.796C138.116 374.264 136.976 383.738 136.099 390.581C135.66 394.002 135.28 396.78 134.958 398.681C134.897 399.75 134.68 400.804 134.315 401.81Z" fill="#251A51"/>
<path d="M136.274 399.5C128.909 400.965 121.456 401.941 113.963 402.424C106.514 403.482 98.9997 404.019 91.4758 404.032C98.8354 402.496 106.289 401.45 113.787 400.903C121.244 399.947 128.756 399.478 136.274 399.5Z" fill="#251A51"/>
<path d="M243.24 417.045C243.282 414.581 243.861 412.156 244.936 409.939C247.86 405.523 251.72 406.635 255.551 408.594C257.288 409.729 259.269 410.438 261.333 410.661C263.396 410.885 265.483 410.617 267.423 409.88C274.061 406.956 277.19 396.985 270.844 392.335C268.797 390.815 266.78 393.33 267.043 395.26C267.423 397.979 268.768 400.932 266.458 403.272C263.359 406.371 259.733 403.769 256.662 402.365C255.066 401.581 253.324 401.137 251.547 401.062C249.77 400.986 247.997 401.281 246.34 401.927C240.492 404.325 236.135 412.337 240.813 417.776C240.994 417.952 241.218 418.079 241.463 418.144C241.708 418.208 241.965 418.208 242.209 418.143C242.454 418.078 242.678 417.951 242.858 417.774C243.039 417.597 243.171 417.376 243.24 417.132V417.045Z" fill="#6E3281"/>
<path d="M288.477 321.921C283.886 326.337 282.161 333.209 286.518 338.501C288.619 340.944 291.557 342.511 294.756 342.895C297.954 343.279 301.18 342.453 303.8 340.578C316.227 330.957 303.273 313.237 289.852 316.921C289.34 317.069 288.898 317.396 288.607 317.842C288.317 318.288 288.195 318.824 288.266 319.352C288.337 319.88 288.595 320.364 288.994 320.718C289.392 321.072 289.904 321.27 290.436 321.278C294.434 321.023 298.401 322.125 301.694 324.407C303.26 325.839 304.206 327.825 304.331 329.944C304.457 332.062 303.752 334.145 302.367 335.753C295.057 344.759 282.336 331.513 290.027 323.442C290.229 323.237 290.34 322.959 290.338 322.671C290.335 322.384 290.218 322.108 290.012 321.907C289.807 321.705 289.53 321.593 289.242 321.596C288.954 321.599 288.679 321.716 288.477 321.921Z" fill="#E3707F"/>
<path d="M539.967 126.966C535.896 130.956 534.367 137.165 538.23 141.947C540.092 144.153 542.698 145.57 545.533 145.917C548.369 146.264 551.229 145.517 553.551 143.823C564.57 135.13 553.085 119.119 541.185 122.448C540.731 122.582 540.34 122.877 540.082 123.281C539.824 123.684 539.717 124.168 539.78 124.645C539.842 125.121 540.071 125.56 540.424 125.879C540.778 126.199 541.231 126.378 541.704 126.385C545.248 126.155 548.765 127.151 551.685 129.212C553.073 130.506 553.911 132.301 554.023 134.215C554.134 136.128 553.509 138.011 552.281 139.463C545.8 147.601 534.522 135.632 541.341 128.34C541.519 128.155 541.618 127.904 541.616 127.644C541.614 127.384 541.51 127.135 541.328 126.953C541.145 126.771 540.9 126.67 540.644 126.673C540.389 126.675 540.145 126.781 539.967 126.966Z" fill="#E3707F"/>
<path d="M95.1022 313.149C90.5112 317.564 88.786 324.436 93.143 329.729C95.2399 332.177 98.1793 333.748 101.38 334.133C104.58 334.517 107.808 333.687 110.425 331.805C122.852 322.185 109.898 304.464 96.4765 308.149C95.9649 308.297 95.5234 308.623 95.2325 309.069C94.9415 309.516 94.8205 310.051 94.8913 310.579C94.9622 311.107 95.2202 311.592 95.6185 311.945C96.0168 312.299 96.5288 312.498 97.0613 312.506C101.089 312.23 105.09 313.334 108.407 315.635C109.973 317.067 110.919 319.053 111.044 321.171C111.17 323.289 110.465 325.373 109.08 326.98C101.769 335.987 89.0491 322.74 96.7397 314.699C96.8922 314.485 96.964 314.224 96.9422 313.962C96.9204 313.7 96.8064 313.454 96.6206 313.268C96.4347 313.082 96.189 312.968 95.927 312.946C95.6651 312.925 95.4039 312.996 95.1899 313.149H95.1022Z" fill="#8AA9FC"/>
<path d="M28.4601 423.975C31.6182 435.672 35.0979 447.368 38.7239 458.919C38.8607 459.523 39.1488 460.082 39.5612 460.545C39.9736 461.007 40.4966 461.357 41.0813 461.561C41.666 461.766 42.2931 461.819 42.9037 461.714C43.5144 461.61 44.0885 461.353 44.5722 460.966C54.0173 454.562 63.4623 448.245 72.381 441.169C72.7576 440.826 73.052 440.402 73.2423 439.929C73.4326 439.456 73.5139 438.947 73.4802 438.438C73.4464 437.93 73.2986 437.435 73.0475 436.992C72.7965 436.548 72.4488 436.167 72.0302 435.876C61.5616 428.683 47.4379 418.068 34.016 418.01C30.6532 418.01 28.1677 422.747 31.7059 424.706C37.0571 427.806 43.4026 428.917 49.2509 431.285C55.9419 433.935 62.309 437.34 68.2287 441.432C68.2287 439.502 68.4919 437.572 68.6381 435.584C58.6375 441.754 49.2216 448.626 39.7181 455.527L45.3325 456.638C41.2972 445.175 37.1156 433.771 32.6124 422.484C32.3753 421.977 31.9605 421.575 31.4467 421.355C30.9328 421.134 30.3558 421.11 29.8253 421.287C29.2948 421.463 28.8478 421.829 28.5691 422.314C28.2904 422.799 28.1996 423.369 28.3139 423.916L28.4601 423.975Z" fill="#E3707F"/>
<path d="M302.513 374.586C310.822 375.871 319.226 376.429 327.632 376.253C328.203 376.188 328.731 375.916 329.115 375.487C329.498 375.058 329.71 374.503 329.71 373.928C329.71 373.353 329.498 372.798 329.115 372.369C328.731 371.94 328.203 371.667 327.632 371.603C319.411 370.887 311.143 370.887 302.923 371.603C301.285 371.603 300.642 374.527 302.513 374.527V374.586Z" fill="#EDC483"/>
<path d="M25.7115 374.586C34.0199 375.871 42.4247 376.429 50.8301 376.253C51.4017 376.188 51.9296 375.916 52.313 375.487C52.6963 375.058 52.9083 374.503 52.9083 373.928C52.9083 373.353 52.6963 372.798 52.313 372.369C51.9296 371.94 51.4017 371.667 50.8301 371.603C42.6092 370.887 34.3417 370.887 26.1209 371.603C24.4833 371.603 23.84 374.527 25.7115 374.527V374.586Z" fill="#EDC483"/>
<path d="M80.6856 361.135L80.247 360.784C79.841 360.255 79.3275 359.819 78.7403 359.504C78.1532 359.188 77.5058 359.001 76.8409 358.955C76.1761 358.909 75.509 359.004 74.8838 359.235C74.2586 359.465 73.6894 359.826 73.214 360.293C72.7387 360.76 72.3678 361.323 72.1261 361.944C71.8844 362.565 71.7773 363.23 71.8119 363.896C71.8465 364.561 72.022 365.212 72.3267 365.805C72.6315 366.397 73.0587 366.919 73.5799 367.334L73.9308 367.772C74.8327 368.656 76.0453 369.152 77.3082 369.152C78.5712 369.152 79.7837 368.656 80.6856 367.772C81.556 366.863 82.0419 365.653 82.0419 364.395C82.0419 363.136 81.556 361.927 80.6856 361.018V361.135Z" fill="#251A51"/>
<path d="M198.296 399.88C197.916 399.88 197.565 392.657 196.804 383.709C196.064 378.315 196.064 372.845 196.804 367.451C197.563 372.813 198.051 378.21 198.266 383.621C199.008 389.015 199.017 394.484 198.296 399.88Z" fill="#251A51"/>
<path d="M245.404 332.098L267.131 325.986L268.417 329.934L246.486 336.718L245.404 332.098Z" fill="#251A51"/>
<path d="M259.265 331.191C259.259 331.722 259.096 332.239 258.797 332.678C258.498 333.116 258.076 333.456 257.584 333.656C257.092 333.855 256.552 333.904 256.032 333.797C255.512 333.69 255.035 333.431 254.662 333.054C254.289 332.676 254.035 332.197 253.934 331.676C253.832 331.155 253.887 330.616 254.092 330.126C254.296 329.636 254.641 329.217 255.083 328.923C255.525 328.629 256.044 328.472 256.574 328.472C256.93 328.472 257.282 328.542 257.611 328.679C257.939 328.816 258.237 329.017 258.487 329.27C258.737 329.523 258.935 329.823 259.068 330.153C259.202 330.482 259.268 330.835 259.265 331.191Z" fill="#E4E1EA"/>
<path d="M171.335 271.655C171.013 271.86 170.282 271.509 169.61 270.719C168.937 269.93 168.616 269.023 168.996 268.789C169.376 268.555 170.048 268.965 170.75 269.725C171.452 270.485 171.715 271.421 171.335 271.655Z" fill="#251A51"/>
<path d="M151.568 274.433C151.217 274.638 150.515 274.433 149.842 273.527C149.17 272.62 148.848 271.801 149.228 271.567C149.609 271.333 150.281 271.743 150.983 272.503C151.685 273.263 151.948 274.199 151.568 274.433Z" fill="#251A51"/>
<path d="M131.011 183.813V227.091H102.091L101.155 243.525L84.1656 226.155H20.4773L26.0917 180.597L131.011 183.813Z" fill="#EDC483"/>
<path d="M121.127 196.182C92.6749 195.627 64.0473 195.422 35.6244 196.007C35.5309 196.032 35.4481 196.087 35.3891 196.163C35.3301 196.24 35.2981 196.334 35.2981 196.431C35.2981 196.528 35.3301 196.622 35.3891 196.698C35.4481 196.775 35.5309 196.83 35.6244 196.855C64.0473 197.469 92.6749 197.264 121.127 196.679C121.179 196.661 121.223 196.628 121.255 196.583C121.287 196.539 121.304 196.485 121.304 196.431C121.304 196.376 121.287 196.323 121.255 196.278C121.223 196.234 121.179 196.2 121.127 196.182Z" fill="#E4E1EA"/>
<path d="M121.127 204.516C92.6748 203.931 64.0473 203.727 35.6244 204.341C35.5158 204.341 35.4116 204.384 35.3349 204.461C35.2581 204.537 35.215 204.642 35.215 204.75C35.215 204.859 35.2581 204.963 35.3349 205.04C35.4116 205.116 35.5158 205.159 35.6244 205.159C64.0473 205.774 92.6748 205.569 121.127 204.984C121.158 204.984 121.188 204.978 121.217 204.966C121.245 204.954 121.271 204.937 121.292 204.916C121.314 204.894 121.331 204.868 121.343 204.84C121.355 204.811 121.361 204.781 121.361 204.75C121.361 204.719 121.355 204.689 121.343 204.661C121.331 204.632 121.314 204.606 121.292 204.585C121.271 204.563 121.245 204.546 121.217 204.534C121.188 204.522 121.158 204.516 121.127 204.516Z" fill="#E4E1EA"/>
<path d="M121.127 213.259C103.582 212.733 86.0371 212.558 68.4921 213.084C68.3985 213.109 68.3158 213.164 68.2568 213.24C68.1978 213.317 68.1658 213.411 68.1658 213.508C68.1658 213.605 68.1978 213.699 68.2568 213.775C68.3158 213.852 68.3985 213.907 68.4921 213.932C86.0371 214.488 103.582 214.312 121.127 213.757C121.179 213.739 121.223 213.705 121.255 213.66C121.287 213.616 121.304 213.563 121.304 213.508C121.304 213.453 121.287 213.4 121.255 213.355C121.223 213.311 121.179 213.277 121.127 213.259Z" fill="#E4E1EA"/>
<path d="M419.921 410.2C416.761 413.239 415.553 417.968 418.572 421.611C420.012 423.295 422.032 424.376 424.231 424.641C426.43 424.905 428.649 424.334 430.447 423.04C439.021 416.439 430.085 404.242 420.847 406.758C420.494 406.86 420.19 407.085 419.99 407.392C419.79 407.699 419.707 408.068 419.755 408.431C419.804 408.794 419.982 409.128 420.256 409.371C420.53 409.615 420.883 409.751 421.249 409.757C424.001 409.578 426.733 410.337 428.998 411.91C430.078 412.894 430.733 414.259 430.823 415.717C430.913 417.175 430.432 418.611 429.481 419.72C424.429 425.919 415.694 416.801 420.987 411.266C421.092 411.119 421.142 410.939 421.127 410.759C421.112 410.579 421.033 410.41 420.905 410.282C420.777 410.154 420.608 410.075 420.428 410.06C420.248 410.045 420.068 410.095 419.921 410.2Z" fill="#8AA9FC"/>
<path d="M508.115 420.665C509.263 424.973 510.551 429.219 511.879 433.486C511.93 433.711 512.037 433.919 512.191 434.091C512.344 434.262 512.54 434.391 512.758 434.466C512.976 434.541 513.209 434.558 513.436 434.517C513.663 434.476 513.875 434.377 514.053 434.231C517.494 431.876 520.956 429.561 524.237 426.965C524.392 426.842 524.516 426.684 524.597 426.503C524.678 426.323 524.714 426.125 524.702 425.927C524.691 425.729 524.631 425.537 524.529 425.368C524.427 425.198 524.285 425.055 524.116 424.952C520.272 422.316 515.099 418.431 510.229 418.391C508.981 418.391 508.216 420.142 509.363 420.867C511.451 421.799 513.595 422.599 515.784 423.262C518.24 424.233 520.576 425.482 522.747 426.985C522.747 426.281 522.747 425.576 522.888 424.872C519.225 427.126 515.784 429.642 512.302 432.178L514.314 432.58C512.825 428.374 511.295 424.208 509.665 420.062C509.303 419.176 507.813 419.659 508.075 420.585L508.115 420.665Z" fill="#E3707F"/>
<path d="M532.388 443.469C537.639 441.037 542.669 438.155 547.422 434.855C547.74 434.605 547.953 434.245 548.018 433.845C548.082 433.446 547.994 433.037 547.771 432.7C547.548 432.362 547.206 432.121 546.813 432.025C546.42 431.928 546.005 431.983 545.651 432.178C540.658 434.886 535.91 438.024 531.462 441.557C530.576 442.241 531.22 444.032 532.388 443.569V443.469Z" fill="#EDC483"/>
<path d="M342.917 459.268C341.893 453.566 340.378 447.964 338.388 442.523C338.249 442.123 337.957 441.794 337.576 441.609C337.195 441.424 336.756 441.398 336.355 441.537C335.955 441.675 335.626 441.968 335.441 442.349C335.256 442.73 335.23 443.169 335.369 443.569C336.711 449.086 338.536 454.474 340.823 459.671C341.266 460.717 343.158 460.536 342.836 459.268H342.917Z" fill="#E8947E"/>
<path d="M359.098 409.616L358.817 409.354C358.199 408.773 357.38 408.455 356.532 408.468C355.685 408.48 354.875 408.823 354.276 409.422C353.676 410.022 353.334 410.831 353.321 411.679C353.308 412.527 353.626 413.346 354.208 413.963L354.469 414.245C354.765 414.583 355.127 414.857 355.533 415.05C355.939 415.242 356.38 415.349 356.829 415.365C357.278 415.38 357.726 415.302 358.144 415.137C358.562 414.972 358.941 414.723 359.259 414.405C359.577 414.088 359.826 413.708 359.991 413.29C360.156 412.872 360.233 412.425 360.218 411.976C360.203 411.527 360.096 411.086 359.903 410.68C359.711 410.274 359.437 409.912 359.098 409.616Z" fill="#251A51"/>
<path d="M496.16 553.964C496.16 553.964 442.08 566.523 420.363 544.806L428.132 492.94C430.507 478.026 429.098 449.346 440.51 439.162C441.821 437.987 443.283 436.992 444.857 436.203C452.908 432.339 467.117 430.165 480.803 430.165C497.408 430.165 514.515 442.664 518.883 458.705L500.89 500.789L496.16 553.964Z" fill="#E3707F"/>
<path d="M490.867 465.306C490.867 465.306 515.019 511.96 503.063 514.435C463.495 522.606 440.53 529.309 440.53 529.309L438.518 544.685C439.101 547 518.561 544.987 527.98 534.32C534.622 526.793 543.457 509.363 524.659 471.666L518.943 458.846L490.867 465.306Z" fill="#F6AEA6"/>
<path d="M445.381 441.154L385.001 464.501L383.11 432.862L370.188 427.871C370.188 427.871 351.471 478.67 374.898 488.13C398.325 497.589 424.691 480.079 424.691 480.079L445.381 441.154Z" fill="#F6AEA6"/>
<path d="M452.848 433.426C431.795 440.128 419.236 447.997 389.59 460.355L404.806 494.288L430.97 485.875L452.848 433.426Z" fill="#E3707F"/>
<path d="M487.244 458.745L502.54 494.288L537.057 487.989L513.791 447.957L486.278 458.745" fill="#E3707F"/>
<path d="M469.19 482.977C476.537 482.575 483.782 482.977 491.128 482.977C491.772 482.977 491.732 482.092 491.128 482.011C483.835 481.267 476.484 481.267 469.19 482.011C468.647 482.011 468.627 482.917 469.19 482.877V482.977Z" fill="#1A3066"/>
<path d="M502.198 441.738C477.382 443.992 494.349 480.602 500.729 491.692C500.804 491.818 500.925 491.908 501.067 491.944C501.208 491.98 501.358 491.958 501.484 491.883C501.609 491.809 501.7 491.687 501.735 491.545C501.771 491.404 501.749 491.254 501.675 491.129C495.355 479.938 478.429 445.864 502.279 442.342C502.621 442.342 502.56 441.718 502.279 441.738H502.198Z" fill="#1A3066"/>
<path d="M433.285 462.67C430.182 474.942 428.215 487.473 427.408 500.105C427.408 500.628 428.253 500.749 428.333 500.226C430.105 487.747 431.896 475.289 433.909 462.851C433.909 462.448 433.385 462.267 433.285 462.67Z" fill="#1A3066"/>
<path d="M491.41 395.044L492.537 379.325C494.527 378.56 496.131 377.037 496.999 375.09C497.867 373.143 497.927 370.931 497.166 368.94C496.232 367.004 494.701 365.418 492.8 364.415C490.899 363.412 488.726 363.044 486.6 363.365C489.277 361.554 489.076 357.186 486.882 354.811C484.464 352.604 481.277 351.433 478.006 351.551C474.775 351.676 471.54 351.568 468.325 351.229C465.507 350.706 462.75 349.417 459.892 349.76C457.034 350.102 454.337 353.322 455.867 355.798C451.841 355.194 447.333 354.63 443.69 356.623C440.047 358.615 438.216 364.231 441.335 366.948C440.365 367.576 439.676 368.557 439.413 369.683C439.151 370.808 439.334 371.992 439.927 372.986C440.573 373.953 441.442 374.751 442.462 375.311C443.481 375.872 444.62 376.179 445.783 376.206C448.11 376.258 450.429 375.925 452.647 375.22" fill="#251A51"/>
<path d="M490.726 384.8L489.901 395.688C489.901 395.688 499.179 396.936 496.543 405.389C493.906 413.843 487.546 410.139 487.546 410.139C487.546 410.139 485.976 431.795 463.776 424.932C446.125 419.478 447.212 396.614 449.446 377.112C449.657 375.325 450.234 373.602 451.142 372.049C452.049 370.496 453.267 369.148 454.72 368.088C456.173 367.028 457.83 366.279 459.585 365.889C461.341 365.499 463.158 365.476 464.924 365.821L478.247 368.417C481.977 369.137 485.311 371.206 487.612 374.228C489.914 377.249 491.022 381.013 490.726 384.8Z" fill="#F6AEA6"/>
<path d="M489.901 404.786L483.863 436.666C483.542 438.367 482.88 439.986 481.915 441.423C480.95 442.86 479.704 444.087 478.251 445.028C476.798 445.969 475.169 446.605 473.463 446.897C471.756 447.19 470.008 447.133 468.325 446.729C465.154 445.969 462.394 444.027 460.606 441.301C458.818 438.574 458.138 435.268 458.705 432.057L461.965 413.782L489.901 404.786Z" fill="#F6AEA6"/>
<path d="M465.366 405.148C465.366 405.148 465.366 405.591 464.823 405.913C464.279 406.235 463.052 405.571 462.81 404.484C462.514 403.307 462.425 402.088 462.549 400.881C462.549 399.512 462.71 398.104 462.79 396.634C462.828 392.974 463.232 389.326 463.998 385.746C464.279 389.393 464.225 393.058 463.837 396.695C463.716 398.164 463.615 399.573 463.515 400.941C463.352 402.042 463.352 403.161 463.515 404.262C463.676 405.148 464.32 405.591 464.742 405.53C465.165 405.47 465.286 405.087 465.366 405.148Z" fill="#251A51"/>
<path d="M458.161 422.779C459.186 423.169 460.182 423.634 461.14 424.167C463.503 425.254 466.064 425.843 468.664 425.898C471.264 425.954 473.848 425.474 476.255 424.489C477.239 424 478.254 423.576 479.294 423.221C479.294 423.221 478.429 424.228 476.557 425.234C474.102 426.456 471.387 427.064 468.645 427.004C465.903 426.945 463.217 426.22 460.818 424.892C459.775 424.413 458.863 423.687 458.161 422.779Z" fill="#251A51"/>
<path d="M462.508 409.616C462.629 409.515 463.112 409.998 464.038 410.401C465.225 410.945 466.567 411.045 467.822 410.683C469.053 410.253 470.084 409.386 470.72 408.247C471.243 407.382 471.364 406.718 471.525 406.718C471.686 406.718 471.807 407.462 471.404 408.569C471.129 409.297 470.694 409.954 470.13 410.49C469.566 411.026 468.888 411.428 468.147 411.666C467.406 411.904 466.621 411.972 465.851 411.864C465.08 411.757 464.343 411.477 463.696 411.045C462.71 410.381 462.408 409.696 462.508 409.616Z" fill="#251A51"/>
<path d="M490.605 406.516C490.605 406.355 491.149 406.275 491.752 405.893C492.078 405.702 492.316 405.391 492.417 405.027C492.517 404.625 492.416 404.262 492.115 404.162C492.031 404.105 491.933 404.075 491.833 404.075C491.732 404.075 491.634 404.105 491.551 404.162L490.666 403.699C491.491 401.968 492.235 400.78 492.457 400.881C492.678 400.982 492.296 402.33 491.591 404.101L490.686 403.638C490.857 403.411 491.087 403.234 491.352 403.129C491.616 403.024 491.905 402.993 492.185 403.041C492.466 403.089 492.728 403.213 492.943 403.4C493.158 403.587 493.317 403.83 493.403 404.101C493.526 404.474 493.526 404.876 493.403 405.249C493.299 405.536 493.13 405.796 492.91 406.009C492.691 406.221 492.425 406.381 492.135 406.476C491.149 406.939 490.605 406.617 490.605 406.516Z" fill="#251A51"/>
<path d="M473.518 385.021C473.518 384.76 474.564 384.156 476.034 384.538C477.503 384.921 478.207 386.028 478.046 386.189C477.885 386.35 476.98 385.846 475.832 385.565C474.685 385.283 473.618 385.323 473.518 385.021Z" fill="#251A51"/>
<path d="M454.337 381.982C454.216 381.741 455.364 380.976 456.974 381.137C458.584 381.298 459.59 382.204 459.409 382.425C459.228 382.646 458.201 382.264 456.873 382.163C455.545 382.063 454.458 382.264 454.337 381.982Z" fill="#251A51"/>
<path d="M489.901 395.749C483.722 389.711 481.85 379.648 480.22 371.174C477.313 373.242 473.942 374.563 470.405 375.023C466.867 375.483 463.271 375.067 459.932 373.811C457.853 376.253 455.425 378.376 452.727 380.11C452.377 380.399 451.971 380.61 451.534 380.732C451.097 380.853 450.639 380.881 450.191 380.815C449.144 380.493 448.681 379.305 448.44 378.239C447.561 374.855 447.687 371.288 448.802 367.974C449.362 366.326 450.264 364.815 451.451 363.542C452.638 362.269 454.081 361.262 455.686 360.588C459.264 359.511 463.089 359.567 466.634 360.749C472.065 362.155 477.274 364.309 482.112 367.149C486.842 369.926 491.39 373.589 493.403 378.702C495.415 383.814 495.415 393.756 490.565 396.332" fill="#251A51"/>
<path d="M475.188 393.897C474.906 393.897 474.725 393.112 474.786 392.186C474.846 391.261 475.148 390.536 475.43 390.556C475.711 390.576 475.913 391.341 475.832 392.267C475.752 393.193 475.49 393.917 475.188 393.897Z" fill="#251A51"/>
<path d="M457.376 391.623C457.094 391.623 456.913 390.838 456.974 389.912C457.034 388.986 457.336 388.262 457.618 388.282C457.899 388.302 458.081 389.067 458.02 389.993C457.96 390.918 457.678 391.643 457.376 391.623Z" fill="#251A51"/>
<path d="M369.604 428.937C369.604 428.937 372.281 412.494 375.481 412.675C378.681 412.856 385.082 412.675 385.082 412.675C385.082 412.675 385.625 397.037 387.396 399.533C389.167 402.028 389.731 423.081 382.868 433.164L369.604 428.937Z" fill="#F6AEA6"/>
<path d="M440.53 529.208C440.53 529.208 411.83 534.24 412.353 537.963C412.842 540.571 413.71 543.094 414.929 545.45L440.49 544.846L440.53 529.208Z" fill="#F6AEA6"/>
<path d="M471.687 546.356L471.465 542.371L412.353 538.768L392.529 485.714L327.641 489.297L349.76 546.638L471.687 546.356Z" fill="#6338A1"/>
<path opacity="0.41" d="M363.325 514.536C363.353 515.488 363.664 516.411 364.218 517.186C364.771 517.962 365.543 518.555 366.434 518.892C367.326 519.228 368.297 519.292 369.225 519.076C370.153 518.86 370.996 518.373 371.647 517.677C372.297 516.981 372.727 516.107 372.88 515.167C373.034 514.226 372.905 513.261 372.509 512.395C372.113 511.528 371.469 510.798 370.658 510.298C369.847 509.797 368.906 509.549 367.954 509.585C366.685 509.632 365.486 510.179 364.619 511.106C363.752 512.034 363.287 513.267 363.325 514.536Z" fill="white"/>
<path opacity="0.41" d="M361.493 514.656C361.567 515.988 362.034 517.268 362.835 518.334C363.636 519.4 364.735 520.205 365.993 520.646C367.252 521.088 368.613 521.146 369.904 520.814C371.196 520.482 372.36 519.774 373.249 518.781C374.138 517.787 374.713 516.552 374.901 515.232C375.088 513.912 374.88 512.566 374.303 511.364C373.725 510.162 372.804 509.158 371.656 508.48C370.508 507.801 369.185 507.478 367.853 507.552C366.968 507.598 366.101 507.819 365.302 508.201C364.502 508.584 363.787 509.121 363.196 509.781C362.605 510.442 362.15 511.212 361.858 512.049C361.565 512.886 361.442 513.772 361.493 514.656Z" fill="white"/>
<path d="M318 547.523L571.776 544.363L586.649 552.152C586.649 552.152 391.824 605.629 318 547.523Z" fill="#DDD2F3"/>
<path d="M516.508 359.803C515.743 361.292 518.259 399.814 518.259 399.814L537.238 398.244L535.024 408.308L544.283 397.862L562.86 395.709L561.732 358.354L516.508 359.803Z" fill="#DDD2F3"/>
<path d="M468.325 299.765C464.631 299.997 461.168 301.642 458.653 304.359C456.139 307.076 454.767 310.656 454.82 314.357C454.82 314.357 455.022 321.985 459.168 324.823C463.314 327.661 463.193 330.7 463.193 330.7H474.021C473.798 328.599 474.256 326.482 475.329 324.662C477.08 322.488 481.367 317.919 480.784 311.157C480.2 304.394 475.068 299.121 468.325 299.765Z" fill="#FFBB7D"/>
<path d="M462.891 334.121C466.796 333.94 470.74 334.383 474.645 334.121C475.188 334.121 475.39 333.216 474.766 333.095C470.83 332.491 466.826 332.491 462.891 333.095C462.307 333.095 462.267 334.061 462.891 334.021V334.121Z" fill="#6338A1"/>
<path d="M464.4 337.543C465.97 337.543 467.52 337.382 469.09 337.402C470.66 337.422 472.229 337.684 473.779 337.563C473.921 337.595 474.069 337.569 474.192 337.492C474.314 337.415 474.401 337.292 474.433 337.15C474.465 337.009 474.44 336.86 474.362 336.738C474.285 336.615 474.162 336.528 474.021 336.496C470.835 335.893 467.565 335.893 464.38 336.496C463.857 336.496 463.978 337.442 464.501 337.402L464.4 337.543Z" fill="#6338A1"/>
<path d="M465.688 340.079C467.057 340.179 468.466 340.562 469.714 340.521C469.85 340.51 469.979 340.452 470.079 340.358C470.178 340.264 470.243 340.138 470.262 340.002C470.28 339.866 470.252 339.728 470.182 339.61C470.112 339.492 470.003 339.402 469.875 339.354C468.466 339.055 467.018 338.987 465.588 339.153C465.465 339.153 465.347 339.202 465.26 339.288C465.174 339.375 465.125 339.493 465.125 339.616C465.125 339.739 465.174 339.856 465.26 339.943C465.347 340.03 465.465 340.079 465.588 340.079H465.688Z" fill="#6338A1"/>
<path d="M466.312 330.559C466.614 326.674 465.306 322.387 464.642 318.483L463.495 318.966C464.058 319.872 464.964 322.468 466.353 322.367C467.742 322.267 468.365 319.69 468.547 318.644H467.299C467.58 319.851 467.621 322.669 469.493 322.468C471.364 322.267 472.149 319.872 472.652 318.563L471.344 318.201C470.227 322.248 470.068 326.5 470.881 330.619C470.931 330.757 471.026 330.875 471.151 330.951C471.277 331.028 471.424 331.059 471.57 331.041C471.716 331.022 471.85 330.954 471.952 330.848C472.054 330.742 472.116 330.604 472.129 330.458C472.008 326.433 471.445 322.408 472.652 318.563C472.894 317.718 471.666 317.416 471.344 318.201C471.163 318.664 470.137 321.2 469.171 320.878C468.862 320.047 468.652 319.182 468.547 318.302C468.511 318.163 468.43 318.04 468.318 317.953C468.205 317.865 468.066 317.817 467.923 317.817C467.78 317.817 467.641 317.865 467.528 317.953C467.415 318.04 467.334 318.163 467.299 318.302C467.158 319.087 466.836 321.2 465.91 320.576C465.387 320.214 464.904 318.906 464.582 318.342C464.51 318.201 464.388 318.093 464.24 318.038C464.092 317.984 463.928 317.988 463.783 318.049C463.637 318.11 463.521 318.224 463.456 318.368C463.391 318.512 463.384 318.676 463.434 318.825C464.038 322.629 464.199 327.057 465.729 330.619C465.87 330.921 466.292 330.72 466.312 330.458V330.559Z" fill="#6338A1"/>
<path d="M427.73 325.708C433.546 323.857 439.544 322.267 445.22 320.033C445.662 319.851 445.501 319.167 445.018 319.288C439.101 320.757 433.285 322.951 427.488 324.823C426.925 325.004 427.166 325.889 427.73 325.708Z" fill="#FFBB7D"/>
<path d="M434.955 308.42C438.662 308.504 442.37 308.396 446.065 308.098C446.179 308.075 446.281 308.013 446.355 307.923C446.428 307.833 446.468 307.721 446.468 307.605C446.468 307.488 446.428 307.376 446.355 307.286C446.281 307.196 446.179 307.135 446.065 307.111C442.36 307.007 438.652 307.095 434.955 307.373C434.291 307.373 434.291 308.44 434.955 308.42Z" fill="#FFBB7D"/>
<path d="M452.526 302.06C448.4 298.477 444.475 294.009 439.786 291.151C439.634 291.034 439.441 290.981 439.25 291.006C439.06 291.03 438.887 291.13 438.769 291.282C438.652 291.434 438.6 291.627 438.624 291.817C438.649 292.008 438.748 292.181 438.9 292.298C442.503 296.324 447.555 299.423 451.781 302.804C452.304 303.227 453.049 302.523 452.526 302.06Z" fill="#FFBB7D"/>
<path d="M482.071 301.496C484.824 300.298 487.512 298.954 490.122 297.471C492.849 296.206 495.444 294.675 497.871 292.902C497.963 292.808 498.022 292.686 498.038 292.555C498.054 292.424 498.027 292.291 497.961 292.177C497.895 292.063 497.793 291.974 497.672 291.923C497.55 291.872 497.415 291.863 497.287 291.896C494.683 292.986 492.195 294.335 489.86 295.921C487.094 297.404 484.407 299.029 481.81 300.792C481.407 301.073 481.629 301.899 482.172 301.657L482.071 301.496Z" fill="#FFBB7D"/>
<path d="M485.634 308.721C486.843 309.072 488.117 309.135 489.354 308.904C490.591 308.674 491.757 308.156 492.759 307.393C493.322 306.87 492.758 306.085 492.074 306.206C490.987 306.387 490.062 306.97 488.894 307.212C487.727 307.453 486.721 307.474 485.634 307.695C485.07 307.695 485.171 308.56 485.634 308.721Z" fill="#FFBB7D"/>
<path d="M486.479 318.785C494.329 320.982 502.299 322.722 510.349 323.998C511.315 324.138 511.456 322.609 510.571 322.347C502.753 320.289 494.824 318.682 486.821 317.537C486.016 317.396 485.654 318.584 486.479 318.785Z" fill="#FFBB7D"/>
<path d="M375.703 455.243C375.741 453.546 376.146 451.878 376.89 450.352C378.903 447.333 381.539 448.098 384.196 449.426C385.391 450.21 386.753 450.7 388.173 450.857C389.593 451.015 391.03 450.835 392.367 450.332C396.936 448.319 399.09 441.436 394.722 438.256C393.293 437.189 391.904 438.94 392.106 440.269C392.367 442.12 393.293 444.173 391.683 445.763C389.57 447.897 387.074 446.105 384.941 445.139C383.844 444.604 382.649 444.3 381.43 444.248C380.211 444.196 378.994 444.397 377.856 444.837C373.831 446.488 370.812 452.023 374.052 455.746C374.175 455.869 374.327 455.957 374.494 456.002C374.662 456.046 374.838 456.046 375.005 456.001C375.172 455.957 375.325 455.868 375.447 455.746C375.57 455.623 375.658 455.471 375.703 455.303V455.243Z" fill="#6E3281"/>
<path d="M435.78 458.664C441.392 457.217 446.867 455.284 452.143 452.888C452.487 452.692 452.747 452.376 452.872 452C452.998 451.624 452.981 451.215 452.824 450.852C452.667 450.488 452.381 450.195 452.022 450.028C451.662 449.862 451.254 449.834 450.875 449.95C445.475 451.717 440.236 453.946 435.217 456.611C434.231 457.135 434.553 459.007 435.78 458.624V458.664Z" fill="#EDC483"/>
<path d="M408.569 464.4C409.737 468.708 411.005 472.954 412.333 477.221C412.384 477.446 412.491 477.654 412.645 477.826C412.799 477.997 412.994 478.126 413.212 478.201C413.43 478.276 413.663 478.293 413.89 478.252C414.117 478.211 414.329 478.112 414.507 477.966C417.969 475.611 421.43 473.296 424.711 470.7C424.866 470.576 424.988 470.416 425.067 470.235C425.147 470.053 425.181 469.855 425.167 469.657C425.153 469.459 425.092 469.268 424.988 469.099C424.884 468.93 424.74 468.789 424.57 468.687C420.746 466.051 415.553 462.166 410.683 462.126C409.435 462.126 408.67 463.857 409.837 464.582C411.918 465.536 414.064 466.343 416.258 466.997C418.71 467.976 421.045 469.225 423.222 470.72C423.222 470.016 423.222 469.311 423.362 468.708C419.699 470.962 416.238 473.478 412.756 476.014L414.768 476.416C413.299 472.21 411.77 468.043 410.119 463.897C410.029 463.715 409.876 463.571 409.688 463.492C409.5 463.413 409.29 463.405 409.097 463.469C408.904 463.532 408.74 463.664 408.635 463.839C408.531 464.013 408.493 464.22 408.529 464.421L408.569 464.4Z" fill="#EDE6F5"/>
<path d="M416.137 507.572C421.903 508.055 427.7 508.055 433.466 507.572C433.882 507.548 434.272 507.359 434.549 507.048C434.827 506.737 434.969 506.328 434.945 505.912C434.921 505.495 434.733 505.105 434.421 504.828C434.11 504.551 433.701 504.408 433.285 504.432C427.604 504.284 421.921 504.621 416.298 505.439C415.191 505.6 414.849 507.451 416.137 507.451V507.572Z" fill="#6E3281"/>
<path d="M526.893 377.031L530.919 390.898L536.514 389.811L535.97 387.014L537.54 386.068L540.438 389.026L549.898 387.175L551.126 383.572L548.429 382.968L551.911 381.801L551.146 377.917L548.147 378.198L552.172 377.071L551.226 372.261L541.626 374.133C541.626 374.133 542.23 367.411 539.392 365.237L537.238 365.66C537.622 366.756 537.846 367.901 537.902 369.061C537.361 371.53 536.69 373.969 535.89 376.367L532.951 377.735L532.247 375.723L526.893 377.031Z" fill="white"/>
<path d="M331.344 351.068L334.564 389.489H405.289L409.213 402.994L413.339 388.181L426.824 387.396L420.605 352.98L331.344 351.068Z" fill="#DDD2F3"/>
<path d="M340.622 365.277C364.942 364.062 389.316 364.479 413.581 366.525C414.446 366.525 414.466 365.237 413.581 365.177C389.314 363.151 364.937 362.794 340.622 364.11C339.877 364.11 339.857 365.317 340.622 365.277Z" fill="white"/>
<path d="M342.051 372.865C366.371 371.64 390.746 372.057 415.01 374.113C415.875 374.113 415.875 372.825 415.01 372.764C390.744 370.742 366.367 370.379 342.051 371.677C341.286 371.677 341.286 372.905 342.051 372.865Z" fill="white"/>
<path d="M342.172 379.205C358.535 379.768 374.716 378.561 391.079 380.03C391.945 380.03 391.945 378.722 391.079 378.681C374.736 377.554 358.535 378.259 342.172 378.017C342.033 378.043 341.908 378.116 341.817 378.225C341.727 378.333 341.678 378.47 341.678 378.611C341.678 378.752 341.727 378.889 341.817 378.997C341.908 379.106 342.033 379.179 342.172 379.205Z" fill="white"/>
<defs>
<linearGradient id="paint0_linear_2_1500" x1="45.8278" y1="307.417" x2="538.852" y2="307.417" gradientUnits="userSpaceOnUse">
<stop stop-color="#E58F7E"/>
<stop offset="0.14" stop-color="#E4857E"/>
<stop offset="0.7" stop-color="#E0637F"/>
<stop offset="1" stop-color="#DE567F"/>
</linearGradient>
</defs>
</svg>
