<svg width="20" height="21" viewBox="0 0 20 21" fill="none" xmlns="http://www.w3.org/2000/svg">
<path d="M10 0.536621C4.49 0.536621 0 5.02662 0 10.5366C0 16.0466 4.49 20.5366 10 20.5366C15.51 20.5366 20 16.0466 20 10.5366C20 5.02662 15.51 0.536621 10 0.536621ZM13.36 12.8366C13.65 13.1266 13.65 13.6066 13.36 13.8966C13.21 14.0466 13.02 14.1166 12.83 14.1166C12.64 14.1166 12.45 14.0466 12.3 13.8966L10 11.5966L7.7 13.8966C7.55 14.0466 7.36 14.1166 7.17 14.1166C6.98 14.1166 6.79 14.0466 6.64 13.8966C6.35 13.6066 6.35 13.1266 6.64 12.8366L8.94 10.5366L6.64 8.23662C6.35 7.94662 6.35 7.46662 6.64 7.17662C6.93 6.88662 7.41 6.88662 7.7 7.17662L10 9.47662L12.3 7.17662C12.59 6.88662 13.07 6.88662 13.36 7.17662C13.65 7.46662 13.65 7.94662 13.36 8.23662L11.06 10.5366L13.36 12.8366Z" fill="#FE6F82"/>
</svg>
