<svg width="24" height="24" viewBox="0 0 24 24" fill="none" xmlns="http://www.w3.org/2000/svg">
<path d="M12 23.0767C18.1176 23.0767 23.0769 18.1174 23.0769 11.9998C23.0769 5.88216 18.1176 0.922852 12 0.922852C5.8824 0.922852 0.923096 5.88216 0.923096 11.9998C0.923096 18.1174 5.8824 23.0767 12 23.0767Z" fill="#007AB9"/>
<path d="M18.6183 12.8911V17.4579H15.9706V13.1971C15.9706 12.1273 15.5884 11.3967 14.6297 11.3967C13.8981 11.3967 13.4635 11.8886 13.2716 12.3649C13.2019 12.5351 13.1839 12.7714 13.1839 13.0102V17.4577H10.536C10.536 17.4577 10.5716 10.2414 10.536 9.49444H13.1841V10.6229C13.1788 10.6318 13.1713 10.6405 13.1666 10.649H13.1841V10.6229C13.536 10.0815 14.1635 9.30745 15.5704 9.30745C17.3124 9.30745 18.6183 10.4456 18.6183 12.8911ZM7.76612 5.65588C6.86039 5.65588 6.26782 6.25043 6.26782 7.03156C6.26782 7.79612 6.84321 8.40784 7.73137 8.40784H7.74855C8.67205 8.40784 9.24626 7.79612 9.24626 7.03156C9.22868 6.25043 8.67205 5.65588 7.76612 5.65588ZM6.4252 17.4579H9.0721V9.49444H6.4252V17.4579Z" fill="#F1F2F2"/>
</svg>
