<svg width="21" height="20" viewBox="0 0 21 20" fill="none" xmlns="http://www.w3.org/2000/svg">
<path fill-rule="evenodd" clip-rule="evenodd" d="M4.3277 5.34743L4.9307 12.5194C4.9747 13.0714 5.4257 13.4854 5.9767 13.4854H5.9807H16.8917H16.8937C17.4147 13.4854 17.8597 13.0974 17.9337 12.5824L18.8837 6.02343C18.9057 5.86743 18.8667 5.71143 18.7717 5.58543C18.6777 5.45843 18.5397 5.37643 18.3837 5.35443C18.1747 5.36243 9.5017 5.35043 4.3277 5.34743ZM5.9747 14.9854C4.6577 14.9854 3.5427 13.9574 3.4357 12.6424L2.5197 1.74843L1.0127 1.48843C0.6037 1.41643 0.3307 1.02943 0.4007 0.620426C0.4727 0.211426 0.8677 -0.054574 1.2677 0.00942601L3.3477 0.369426C3.6827 0.428426 3.9377 0.706426 3.9667 1.04643L4.2017 3.84743C18.4777 3.85343 18.5237 3.86043 18.5927 3.86843C19.1497 3.94943 19.6397 4.24043 19.9737 4.68843C20.3077 5.13543 20.4477 5.68643 20.3677 6.23843L19.4187 12.7964C19.2397 14.0444 18.1557 14.9854 16.8957 14.9854H16.8907H5.9827H5.9747Z" fill="#8954C2"/>
<path fill-rule="evenodd" clip-rule="evenodd" d="M15.2876 9.0437H12.5156C12.1006 9.0437 11.7656 8.7077 11.7656 8.2937C11.7656 7.8797 12.1006 7.5437 12.5156 7.5437H15.2876C15.7016 7.5437 16.0376 7.8797 16.0376 8.2937C16.0376 8.7077 15.7016 9.0437 15.2876 9.0437Z" fill="#8954C2"/>
<path fill-rule="evenodd" clip-rule="evenodd" d="M5.5445 17.7019C5.8455 17.7019 6.0885 17.9449 6.0885 18.2459C6.0885 18.5469 5.8455 18.7909 5.5445 18.7909C5.2425 18.7909 4.9995 18.5469 4.9995 18.2459C4.9995 17.9449 5.2425 17.7019 5.5445 17.7019Z" fill="#8954C2"/>
<mask id="mask0_239_2298" style="mask-type:alpha" maskUnits="userSpaceOnUse" x="4" y="17" width="3" height="2">
<path fill-rule="evenodd" clip-rule="evenodd" d="M4.999 18.2455C4.999 18.5475 5.242 18.7915 5.545 18.7915C5.846 18.7915 6.089 18.5475 6.089 18.2455C6.089 17.9445 5.846 17.7015 5.545 17.7015C5.242 17.7015 4.999 17.9445 4.999 18.2455Z" fill="white"/>
</mask>
<g mask="url(#mask0_239_2298)">
<path fill-rule="evenodd" clip-rule="evenodd" d="M0 23.7905H11.089V12.7015H0V23.7905Z" fill="#8954C2"/>
</g>
<path fill-rule="evenodd" clip-rule="evenodd" d="M5.5435 18.0408C5.4305 18.0408 5.3385 18.1328 5.3385 18.2458C5.3385 18.4728 5.7495 18.4728 5.7495 18.2458C5.7495 18.1328 5.6565 18.0408 5.5435 18.0408ZM5.5435 19.5408C4.8295 19.5408 4.2495 18.9598 4.2495 18.2458C4.2495 17.5318 4.8295 16.9518 5.5435 16.9518C6.2575 16.9518 6.8385 17.5318 6.8385 18.2458C6.8385 18.9598 6.2575 19.5408 5.5435 19.5408Z" fill="#8954C2"/>
<path fill-rule="evenodd" clip-rule="evenodd" d="M16.8248 17.702C17.1258 17.702 17.3698 17.945 17.3698 18.246C17.3698 18.547 17.1258 18.791 16.8248 18.791C16.5228 18.791 16.2798 18.547 16.2798 18.246C16.2798 17.945 16.5228 17.702 16.8248 17.702Z" fill="#8954C2"/>
<mask id="mask1_239_2298" style="mask-type:alpha" maskUnits="userSpaceOnUse" x="16" y="17" width="2" height="2">
<path fill-rule="evenodd" clip-rule="evenodd" d="M16.28 18.2455C16.28 18.5475 16.523 18.7915 16.825 18.7915C17.125 18.7915 17.37 18.5475 17.37 18.2455C17.37 17.9445 17.125 17.7015 16.825 17.7015C16.523 17.7015 16.28 17.9445 16.28 18.2455Z" fill="white"/>
</mask>
<g mask="url(#mask1_239_2298)">
<path fill-rule="evenodd" clip-rule="evenodd" d="M11.28 23.7905H22.37V12.7015H11.28V23.7905Z" fill="#8954C2"/>
</g>
<path fill-rule="evenodd" clip-rule="evenodd" d="M16.8238 18.0408C16.7118 18.0408 16.6198 18.1328 16.6198 18.2458C16.6208 18.4748 17.0308 18.4728 17.0298 18.2458C17.0298 18.1328 16.9368 18.0408 16.8238 18.0408ZM16.8238 19.5408C16.1098 19.5408 15.5298 18.9598 15.5298 18.2458C15.5298 17.5318 16.1098 16.9518 16.8238 16.9518C17.5388 16.9518 18.1198 17.5318 18.1198 18.2458C18.1198 18.9598 17.5388 19.5408 16.8238 19.5408Z" fill="#8954C2"/>
</svg>
