<svg width="14" height="14" viewBox="0 0 14 14" fill="none" xmlns="http://www.w3.org/2000/svg">
<path fill-rule="evenodd" clip-rule="evenodd" d="M10.1304 9.20673L13.6666 12.743L12.743 13.6666L9.20673 10.1304L10.1304 9.20673Z" fill="#B6B6B6"/>
<path fill-rule="evenodd" clip-rule="evenodd" d="M6.21157 1.63959C3.68654 1.63959 1.63959 3.68654 1.63959 6.21157C1.63959 8.7366 3.68654 10.7835 6.21157 10.7835C8.7366 10.7835 10.7835 8.7366 10.7835 6.21157C10.7835 3.68654 8.7366 1.63959 6.21157 1.63959ZM0.333313 6.21157C0.333313 2.9651 2.9651 0.333313 6.21157 0.333313C9.45804 0.333313 12.0898 2.9651 12.0898 6.21157C12.0898 9.45804 9.45804 12.0898 6.21157 12.0898C2.9651 12.0898 0.333313 9.45804 0.333313 6.21157Z" fill="#B6B6B6"/>
</svg>
