<svg width="21" height="21" viewBox="0 0 21 21" fill="none" xmlns="http://www.w3.org/2000/svg">
<path fill-rule="evenodd" clip-rule="evenodd" d="M10.25 1.5C5.425 1.5 1.5 5.425 1.5 10.25C1.5 15.075 5.425 19 10.25 19C15.075 19 19 15.075 19 10.25C19 5.425 15.075 1.5 10.25 1.5ZM10.25 20.5C4.598 20.5 0 15.902 0 10.25C0 4.598 4.598 0 10.25 0C15.902 0 20.5 4.598 20.5 10.25C20.5 15.902 15.902 20.5 10.25 20.5Z" fill="#8954C2"/>
<path fill-rule="evenodd" clip-rule="evenodd" d="M9.1338 8.08639C8.9568 9.08739 8.9538 11.4784 9.1308 12.4284C10.0088 12.1184 11.9108 10.8684 12.4228 10.2494C11.9128 9.64839 10.0348 8.42439 9.1338 8.08639ZM8.8278 14.0014C8.5578 14.0014 8.3018 13.9244 8.0928 13.7164C7.9318 13.5574 7.5018 13.1324 7.4998 10.3334C7.4988 7.36139 7.9458 6.91939 8.0928 6.77239C8.6158 6.25439 9.4678 6.60939 9.8308 6.76139C10.3508 6.97839 13.9998 8.84739 13.9998 10.2454C13.9998 11.5554 10.7158 13.3874 9.8768 13.7374C9.5498 13.8734 9.1768 14.0014 8.8278 14.0014Z" fill="#8954C2"/>
</svg>
